<?xml version="1.0" encoding="UTF-8"?>
<svg id="Livello_1" xmlns="http://www.w3.org/2000/svg" version="1.1" viewBox="0 0 1280 720">
  <!-- Generator: Adobe Illustrator 29.2.1, SVG Export Plug-In . SVG Version: 2.1.0 Build 116)  -->
  <defs>
    <style>
      .st0, .st1, .st2 {
        stroke-linecap: round;
      }

      .st0, .st1, .st2, .st3 {
        stroke: #e30613;
      }

      .st0, .st1, .st4, .st5 {
        fill: #e30613;
      }

      .st0, .st2, .st3, .st5 {
        stroke-miterlimit: 10;
      }

      .st1 {
        stroke-linejoin: round;
      }

      .st6 {
        fill: #575756;
      }

      .st2 {
        stroke-width: 11px;
      }

      .st2, .st3 {
        fill: none;
      }

      .st3 {
        stroke-width: 12px;
      }

      .st7 {
        fill: #009fe3;
      }

      .st5 {
        stroke: #fff;
      }
    </style>
  </defs>
  <path class="st6" d="M717.73,329.85c.17.67.26,1.47-.34,1.7-2.02.77-1.85,2.69-1.97,4.62-.19,3.15-1.28,5.78-3.89,7.2-1.12.61-1.38,1.89-1.76,3.03-1.34,3.98-4.46,5.56-8.31,4.11-.65-.25-1.25-.41-1.88-.07-5.58,3.05-7.88,2.56-13.21-2.87-.56-.57-1.22-.56-1.83-.81-2.45-1-5.27-1.39-6.17-5-.22-.87-.96-.51-1.51-.46-3.12.29-5.49-1.49-7.47-4.14-1.08-1.44-2.63-2.5-3.03-4.46-.65.27-.54.85-.67,1.26-1.04,3.22-1.05,3.3-4.14,2.33-1.39-.43-1.9.05-1.91,1.48-.04,5.85-1.7,10.83-5.38,14.72-.25.26-.46.58-.62.91q-1.6,3.32-4.16.39c-.15-.17-.33-.3-.73-.67-.76,2.69-1.13,5.47-2.49,7.69-1.67,2.74-3.28,5.59-6.88,5.58-.42,0-.97.34-1.24-.09-1.36-2.24-1.97-.53-2.67.34-2.4,2.95-4.17,6.5-6.96,9.07-1.09,1.01-2.31,1.61-3.75,1.89-1.36.26-2.4.12-2.98-1.65-.54-1.63-1.4-1.2-2.16-.45-2,1.99-4.1,3.88-5.9,6.07-1.23,1.49-2.8,2.19-4.36,3.01-.52.27-1.27.48-1.64-.03-1.6-2.22-2.07-.36-2.7.61-2.25,3.46-4.77,6.62-8.49,8.15-1.95.8-4.02,1.26-5.76,2.62-1.07.84-1.33-.38-1.54-1.25-.42-1.77-1.21-1.49-1.92-.56-.57.75-1.03,1.64-1.36,2.57-1.77,4.97-4.21,9.39-7.71,12.98-1.37,1.4-3.12,1.96-5.02,2.12-.36.03-.74.01-.98-.4-.26-.44-.1-.82.17-1.06,2.96-2.63,2.86-6.68,3.12-10.52.15-2.3-.03-4.67.62-6.85.42-1.38-.45-1.62-1.3-2.06-2.27-1.17-2.38-1.72-.72-3.49.71-.76,1.23-1.62,1.43-2.76.61-3.52,1.85-6.72,3.52-9.65.75-1.32.51-1.88-.84-2.45-2.67-1.12-2.66-1.19-1.4-3.87.92-1.97.73-4.3,1.14-6.44.03-.15-.02-.32-.01-.48.05-2-1.75-5.74-3.27-6.87-1.35-1-1.98-2.08-.61-3.46,1.72-1.74,1.93-4.2,1.94-6.73,0-.64-.1-1.29-.13-1.93-.07-1.45.29-3.11-.28-4.29-.76-1.57-2.37-.24-3.6-.67-.79-.28-1.63-.38-2.03-1.34-.36-.86.24-1.29.64-1.81,2.09-2.77,1.13-6.2.7-9.43-.8-6.04-1.93-12.07-.79-18,.24-1.25-.05-2.01-1.37-2.17-.87-.1-1.71-.48-2.47-1.08-1.92-1.5-1.95-1.81-.37-3.51.96-1.03,1.56-2.35,1.86-3.82.77-3.75,2.1-7.08,4.87-9.43,1.08-.91,1.46-2-.21-3.14-1.78-1.21-2.62-3.44-4.17-4.94-.66-.64-.55-1.92.42-1.69,3.97.93,5.92-2.25,8.44-4.22,2.11-1.64,4.23-3.1,6.96-3.45,2.47-.32,2.55-.88.84-3.08-.35-.45-.72-.87-1.06-1.33-1.61-2.19-1.44-2.48.59-3.79,4.14-2.68,8.73-3.59,13.65-3.09,5.69.58,10.18,4.31,14.45,8.48.51.5,1.07.93,1.59,1.41,1.66,1.52,3.34,1.81,5.02.61,1.63-1.16.66-3.06.53-4.63-.29-3.46-1.44-7.2-.57-10.31,1.17-4.18,2.69-8.3,4.7-12.08,2.93-5.49,6.33-10.65,8.17-16.9,2.07-7.06,2.41-14.37,1.39-21.97-1.31-1.13.25,1.03-.86-.5-.45-.62-2.38.97-2.84,1.42-2.69,2.61-3.15,6.42-3.56,10.2-.46,4.23-.24,8.69-2.86,12.07-.42.54-.85,1.01-1.43,1.29-.76.36-1.55.93-2.41.11-.91-.87-.36-1.74-.13-2.64.66-2.61.6-5.35.21-8.09-.79-5.6-1.22-11.16.32-16.4,1.17-3.96,2.93-7.57,6.08-9.94,1.05-.79.85-1.42.21-2.53-10.27-17.71-24.17-31.19-39.67-42.84-10.39-7.81-21.23-14.63-32.29-21.01-2.91-1.68-5.77-3.5-8.71-5.13-1.11-.62-1.32-1.28-1.19-2.5.23-2.14.56-4.24,1.15-6.24.51-1.72,1.35-2.25,3.05-.78,5.46,4.71,11.46,8.38,17.42,12.11,6.88,4.31,13.67,8.81,19.82,14.46,1.51,1.39,2.36,1.22,3.55-.2,3.74-4.47,8.54-4.81,13.28-2.26,4.11,2.21,7.53,5.46,10.3,9.57,1.25,1.85,2.68,3.43,4.6,4.36.65.32,1.28.64,1.09,1.59-.16.81-.73.98-1.42,1.09-2.37.36-4.42-.62-6.37-2.25-2.05-1.73-3.95-3.7-6.22-5.05-2.67-1.58-5.22-1.44-7.69-.13-.99.52-1.02,1.06-.07,1.9,3.71,3.25,7.74,5.85,12.03,7.78,3.8,1.71,7.64,3.45,11.55,4.6,8.51,2.5,17.07,4.23,25.5,2.05.89-.23,1.81-.27,2.7-.5,3.3-.85,4.22-3.62,4.58-6.91.98-9.11,3.83-17.38,7.67-25.09,3-6.02,7.29-10.86,12.03-15.29,4.17-3.89,8.96-6.81,13.18-10.58.5-.44,1.05-.86,1.75-.51.91.46.66,1.37.67,2.15.04,3.32.19,3.55,2.59,1.99,8.07-5.24,17.1-6.55,26.69-5.77,4.57.37,9.07.09,13.45-.91,1.63-.37,1.75.45,1.68,1.78-.12,2.01-.66,3.88-1.33,5.67-.43,1.15-.69,1.71.91,1.6,8.55-.55,16.64,1.95,24.48,6.79,3.37,2.08,6.83,4.22,10.75,4.53,1.94.15,3.7-.23,5.41-.95.53-.22,1.05-.57,1.58.07.49.59.28,1.21.09,1.81-.42,1.37-1.7,2.7-1.18,4.03.49,1.24,2.32,1.19,3.53,1.82,7.34,3.86,13.78,9.62,20.92,13.89,2.37,1.42,4.71,2.94,7.3,3.76,2.06.65,3.98.78,5.84-.28,1.64-.93,2.19-.52,2.28,1.61.15,3.6-1.91,5.69-4.02,7.69-.56.54-1.35.79-2.02,1.19-1.15.68-2.33,1.3-.15,2.67,1.01.63.52,1.58.13,2.31-1.74,3.34-4.04,6.03-7.4,7.39-1.93.78-2.99,1.81-1.44,4.39.8,1.34.06,2.48-.78,3.35-2.93,3.07-6.42,5.01-10.6,5.39-1.72.16-1.54,1.2-.63,2.19,1.49,1.62,1.48,3.77,2.37,5.58.41.85-.23,1.3-.6,1.84-3.43,4.95-7.99,7.88-13.76,8.63-.7.09-1.2.03-1.02,1.18.5,3.27-.3,4.46-3.2,5.09-4.46.97-8.98,1.52-13.62,1.41-2.83-.07-2.89.02-2,3.01.5,1.67.06,2.69-1.34,3.09-1.23.35-2.49.56-3.73.87-.48.12-1.35-.31-1.24.75.08.81.64,1.28,1.36,1.46,1.15.29,2.29.57,3.43.89,3.13.87,5.52,2.81,6.93,6.2,1.61,3.86,5.32,4.44,8.03,6.56.69.54,2.18-.82,3.47-1.05,3.79-.66,8.88,3,10.26,7.06,1.08,3.19,3.21,4.97,6.17,5.43,4.39.68,7.32,4.06,8.04,9.79.27,2.19.92,4.09,1.88,6,1.56,3.12,1.41,5.93-.54,8.38-.57.72-.66,1.46-.36,2.41,1.66,5.33-4.3,10.84-8.96,8.7-1.3-.6-1.73.29-2.24,1.04-2.12,3.1-4.73,5.24-8.53,5.47-1.65.1-3.17-.07-4.62-1.14-1.06-.78-1.77-.91-2.75.19-2.33,2.61-7.6,3-10.7.99-.9-.59-1.55-.76-2.33-.06-2.81,2.54-6.83,2.47-10.12-.12-.87-.68-1.96-1.73-2.49-.18-1.08,3.19-3.71,3.12-6.05,3-3.56-.17-6.87-1.62-8.94-5.53-.48-.9-1.07-1.29-1.99-1.28-4.6.03-8.47-2.37-12.09-5.63-1.72-1.54-4-1.29-5.19.43-.52.74-.28,1.5.12,2.25,1.44,2.66,2.13,5.46,1.95,8.41-.06.96.33,1.5,1.13,1.89,5.51,2.68,6.3,10.42,4.62,15.75-.18.58-.49,1.06.01,1.77,2.02,2.86,2.74,6.42,1.36,8.99-1.9,3.53-.71,7.55-1.69,11.1-.28,1,.31,1.86.69,2.77.9,2.15.41,5.33-.87,5.99-.38-1.07.05-2.05.01-3.08-.07-1.84-.32-3.2-2.54-2.62-.96.25-2.15-.33-3.21-.33-.67,0-1.74-1.49-2.02.34-.22,1.4-.05,2.46,1.53,2.9.92.25,1.9.89,2.35,1.84,1.15,2.42,2.46,1.87,3.88.92ZM770.25,200.2c-5.19-1.38-10.16-3.28-15.02-5.71-9.93-4.97-19.45-10.8-28.22-18.3-7.57-6.48-14.53-13.79-21.86-20.58-6.41-5.93-13.26-9.41-21.35-7.39-6.01,1.5-11.9,3.26-17.54,5.79-.61.27-1.55.37-1.57,1.29-.02.84.89,1.03,1.42,1.44,3.5,2.67,6.79,5.66,9.88,8.9,9.64,10.14,18.82,20.8,28.91,30.41,6.12,5.83,12.3,11.46,19.91,14.58,6.94,2.85,13.99,3.94,21.11,4.47,2.05.15,2.18-.1,1.17-2.22-1.54-3.24-1.44-3.47,1.64-3.76.36-.03.71-.1,1.06-.15,3.59-.43,3.79-.94,1.8-4.39-.82-1.42-.72-2.36.9-2.4,1.51-.04,3.03.04,4.54.01,4.52-.09,9.03-.19,13.22-1.99ZM741.38,217.6c-.44-.36-.5-.44-.57-.45-.5-.09-1.01-.19-1.51-.25-11.05-1.27-21.11-5.84-30.14-13.89-7.75-6.91-14.98-14.49-22.12-22.17-6.54-7.03-12.87-14.29-20.02-20.6-3.48-3.08-6.58-4.54-10.35-1.89-1.19.84-1.38,1.32-.71,2.71,2.11,4.34,3.03,8.97,3.72,13.66,1.07,7.31,1.13,14.7,3.28,21.92,2.22,7.46,5.52,14.21,11.67,18.9,3.31,2.53,3.54,2.38,3.73-1.88.03-.78-.18-1.74.7-2.01.78-.23,1.4.38,1.94,1,4.06,4.64,9.1,6.38,14.41,7.29,4.71.81,9.41.88,14.12,1.29,2.44.21,2.63-.04,2.22-2.69-.1-.63-.3-1.27-.49-1.89-.26-.83-.98-1.7-.28-2.46.79-.86,1.6-.02,2.37.46,3.61,2.29,7.32,4.19,11.29,5.37,6.05,1.81,11.34.12,16.77-2.41ZM794.85,172.51c-3.72.09-7.41-.17-11.06-1.23-10.43-3.04-20.27-8.06-29.86-13.91-6.66-4.06-13.4-7.97-20.47-10.83-2.76-1.12-5.54-2.56-8.5-2.54-7.06.04-14.08.42-21.04,1.19-2.63.29-5.34.32-8.43,1.34,4.68,2.07,8.43,4.68,11.82,7.94,4.76,4.57,9.43,9.25,14.22,13.78,2.65,2.5,5.14,5.4,8.23,7.1,9.43,5.17,19.17,7.89,29.36,7.66,8.68-.19,17.35-1.06,26.16,1.41.42.12.9.27,1.18-.19.27-.44.07-.97-.2-1.36-.73-1.07-1.52-2.09-2.28-3.14-.56-.78-1.36-1.52-1.02-2.59.35-1.13,1.35-.87,2.2-.86,3.72.07,6.91-1.28,9.7-3.77ZM730.27,103.02c-3.86,4.81-8.74,6.88-13.49,8.98-7.5,3.32-14.69,7.09-20.97,12.62-5.92,5.22-10.79,11.37-13.49,19.49-.17.5-.57,1.04-.24,1.56.46.73,1.07.19,1.58.08,6.91-1.41,13.89-2.47,20.95-3.08,2-.17,3.72-.79,5.32-1.94,1.39-1,2.85-1.9,4.32-2.77,8.56-5.09,18.27-6.39,27.96-7.78,7.33-1.05,14.86-1.21,21.72-4.23,2.86-1.25,5.4-2.91,7.7-5.93-4.97.42-9.05-1.45-13.11-3.76-3.94-2.25-7.98-4.24-12.21-5.54-5.11-1.56-10.21-2.26-15.34-1.77-.82.08-1.96.65-2.56-.68-.5-1.1.38-1.73.84-2.46.39-.62.84-1.2,1.02-2.81ZM612.77,160.63c2.2,2.4,4.38,4.83,6.61,7.21,5.1,5.43,9.34,11.64,13.52,17.9.87,1.3,1.63,2.18,3.06,2.61,2.97.88,5.73,2.65,6.77,6.02.77,2.51,2.21,4.23,3.66,6.11,6.41,8.23,14.79,11.67,23.98,14.4-.42-.71-.54-1.01-.73-1.23-6.04-6.81-8.81-15.1-10.21-23.92-.7-4.41-1.07-8.86-1.46-13.29-.38-4.32-1.42-8.5-2.82-12.62-.35-1.03-.56-2.51-2.25-1.82-4.38,1.79-9.09,2.19-13.86,2.17-8.74-.04-17.45-1.12-26.27-3.53ZM620.9,278.52c-1,1.17-1.9,2.29-2.86,3.33-2.82,3.04-5.51,6.12-7.44,10.07-4.46,9.14-7.6,18.93-10.28,29.01-3.17,11.93-9.34,21.18-19.69,26.29-1.9.94-3.27,2.12-4.26,4.3-1.01,2.23-.15,2.4,1.39,2.58,2.99.36,5.87-.28,8.83-.23,14.45.24,23.59-10.15,28.32-23.53,2.85-8.07,3.44-16.99,3.69-25.91.22-7.76.47-15.51,2.35-22.89.22-.86.54-1.77-.06-3.01ZM712.11,141.6c.38.26.45.34.51.34,2.01-.06,4.02-.14,6.03-.19,18.81-.51,37.63.44,56.57,4.25,8.44,1.7,16.94,3.05,25.29,1.62,2.3-.4,4.72-.63,7.05-2.32-5.63-1.6-10.11-4.9-14.72-7.89-4.42-2.87-8.59-6.24-13.07-9.01-4.92-3.04-9.6-4.26-14.27-.85-2.05,1.49-4.64,1.73-7.07,2.23-11.13,2.31-22.69,2.68-33.6,5.98-4.42,1.34-8.63,3.17-12.72,5.85ZM728.34,100.79c-4.16.17-8.27-.23-12.36-.31-9.46-.19-18.41,1.37-25.97,7.38-.82.65-1.64,1.85-2.78,1.09-1.21-.8-.06-2.04-.24-3.09-.02-.14-.13-.27-.26-.54-.56.62-1.09,1.17-1.59,1.77-5.45,6.5-11.15,12.85-14.01,21.51-2,6.06-3.55,12.34-5.33,18.5-.45,1.57-1.04,3.07-1.57,4.61,2.76-1.29,5.5-2.28,8.23-2.75,5.17-.89,7.4-4.28,9.34-9.37,4.02-10.53,11.84-17.41,20.51-22.97,5.33-3.42,11.01-6.2,16.96-8.42,3.67-1.37,6.86-3.67,9.09-7.42ZM648.7,213.85c-1.46-3.95-4.08-7.07-7-9.94-1.03-1.02-2.17-1.86-3.41-2.43-1.91-.88-2.71-.22-2.56,1.96.25,3.62.48,7.24.41,10.85-.2,10.51-4.46,18.93-9.09,27.21-2.64,4.73-4.68,9.72-4.74,15.76-.04,4.74,2.11,9.01,2.74,13.58.19,1.37,1.55,2.13,2.76,2.19,2.88.13,5.72.01,8.46-.87,1.05-.34,1.07-.57.61-1.74-1.36-3.43-1.59-6.88.29-9.84.82-1.29.57-2.37.07-3.77-1.74-4.87-1.4-9.37,1.15-13.34.4-.62.85-1.05.78-2.01-.32-4.46,2.63-8.5,6.61-8.75,2.67-.17,5.16-.15,6.57-3.21.6-1.3,1.26-2.35.79-3.91-1.2-3.98-2.08-8.08-4.43-11.73ZM623.62,375.16c1.34-2.76,2.47-5.07,2.91-7.69,1.02-6.18,2.97-11.91,5.23-17.51.43-1.08.62-2.19.28-3.48-1.44-5.45-2.99-10.83-5.47-15.97-2.16-4.48-5.49-8.25-6.83-13.14-.5.13-.46.5-.5.8-1.58,11.1-4.99,21.39-8.97,31.41-.85,2.13-1.21,4.23-1.1,6.63.3,6.83,2.24,13.23,5.22,19.42.63,1.31,1.19,1.06,1.78.28.97-1.27,2.32-1.91,3.62-2.65,1.55-.89,3.12-1.63,3.84,1.91ZM633.61,345.39c2.07-4.74,3.01-9.23,3.79-13.78,2.04-11.92.25-24.11-1.35-36.24-.64-4.89-3.05-9.04-6.65-12.39-1.55-1.44-2.86-3.24-4.25-4.89-.41-.48-.72-1.17-1.42-.96-.66.19-.66.88-.77,1.51-1.7,9.27-2.6,18.7-2.84,28.33-.16,6.71,1.74,12.59,5.37,18.13,1.93,2.94,3.4,6.11,4.73,9.38,1.36,3.32,2.14,6.81,3.39,10.92ZM639.9,313.68c-.08.98-.17,1.36-.14,1.75.77,9.59-.39,18.73-3.29,27.37-1.57,4.66-3.5,9.14-5.35,13.65-.85,2.08-.7,4.14.12,6.3,1.39,3.68,1.61,3.74,3.96,1.27,1.14-1.19,2.24-2.5,3.9-.27.46.61,1.09.24,1.61.01,1.4-.61,2.52-1.58,3.34-2.99,1.52-2.62,2.47-5.53,3.18-8.59.22-.94.16-2.28,1.29-2.43,1.19-.16,1.45,1.22,2,2.07.43.67.8,1.69,1.58.56,2.34-3.39,5.26-6.38,5.59-11.16.13-1.91.23-3.82.29-5.74.06-1.74.64-2.56,2.32-1.65.4.21.9.53,1.23.19.46-.47,0-1.04-.21-1.54-1.57-3.6-4.36-5.72-7.36-7.58-4.91-3.04-10.09-5.62-14.05-11.22ZM580.34,273.92c.43.85,1.07.77,1.61.97,2.85,1.05,5.76,2.28,7.69,4.99,4.44,6.25,10.1,7.97,16.47,7.88,3.03-.04,5.57-.77,7.38-3.52.93-1.41,2.24-2.48,3.32-3.76,1.03-1.23,2.11-2.43,2.54-4.16.4-1.57.02-3.18-1.36-3.76-3.91-1.63-6.73-5.03-10-7.7-6.85-5.59-13.69-5.52-20.58-2.33-1.55.72-1.76,1.8-.66,3.35.46.65,1.02,1.23,1.54,1.83.65.74,2,1.08,1.73,2.35-.3,1.39-1.61,1.16-2.68,1.25-2.57.22-5,.83-6.99,2.61ZM803.84,159.91c-.7-.08-.98-.16-1.24-.14-6.73.61-13.38-.53-20.01-2.98-5.01-1.85-9.87-4.23-14.69-6.7-8.31-4.25-16.83-5.45-25.48-5.63-2.95-.06-5.94-.58-9.46-.16,9,3.66,16.88,8.54,24.83,13.22,7.72,4.55,15.64,8.38,23.89,11.14,4.44,1.48,8.89,2.13,13.34,1.45,1.07-.17,2.09-.41.76-2.03-1.37-1.67-.92-2.64.79-3.31,2.58-1,4.95-2.43,7.28-4.86ZM575.43,304.29c-2.33,1.08-3.51,3.06-3.67,5.95-.2,3.69.17,7.38.69,11.08.39,2.73.64,2.93,2.9,2.25.47-.14.9-.42,1.38-.55,3.73-1.03,7.31-3.15,11.41-2.05,3.94,1.06,6.74-.91,9.73-2.61,1.18-.67,1.87-1.81,2.24-3.19,1.31-4.96,2.93-9.75,4.73-14.46.16-.41.36-1.01.19-1.33-.34-.66-.95-.28-1.36-.13-4.39,1.56-9.12,1.47-13.7,2.05-4.95.63-9.96.92-14.54,3ZM576.44,406.7c1.24-1.15,1.49-2.24,1.93-3.2,2.04-4.48,3.97-9.04,6.14-13.44,3.31-6.72,7.61-12.67,11.67-18.78,5.4-8.12,10.42-16.46,13.87-25.97.26-.71.52-1.41.78-2.12-3.37,3.86-6.66,7.59-11.07,9.76-2.3,1.13-3.84,2.93-4.94,5.32-.64,1.38-1.3,2.74-1.87,4.15-1.62,4.03-3.55,7.82-7.33,9.65-4.53,2.19-6.49,6.61-8.09,11.4-.42,1.24-.6,2.6-1.08,3.8-.56,1.4-.64,2.17,1.16,2.2,1.6.02,1.98,1.05,1.17,2.39-1.08,1.8-1.38,3.92-1.52,6.06-.18,2.76-.15,5.57-.81,8.78ZM609.56,289.55c-5.41.06-10.59-.52-15.79-1.43-3.82-.67-7.62-1.61-11.47-1.56-6.13.08-10.49,2.64-12.11,9.43-.32,1.35-.94,2.59-1.33,3.92-.26.9-1.56,1.56-.73,2.64.69.9,1.92.71,2.92.74.56.02,1.11-.21,1.64-.4,2.74-.95,5.48-1.84,8.36-2.39,6.57-1.25,13.35-1.3,19.93-2.5,4.48-.82,7.31-3.42,8.59-8.46ZM738.09,181.75c.58.43,1.16.89,1.75,1.29,3.49,2.33,7.05,4.48,10.68,6.46,6.28,3.4,12.65,6.47,19.41,7.96.53.12,1.65.81,1.47-.38-.42-2.84,1.47-2.4,2.82-2.58,4.39-.58,8.02-2.66,11.13-5.83.42-.43,1.22-.8.85-1.66-.32-.74-1.14-.7-1.77-.87-3.46-.88-6.92-1.27-10.4-1.32-11.93-.18-23.83,1.54-35.95-3.07ZM607.32,356.79c-7.55,12.7-15.8,24.51-22.89,37.26,1.18-1.06,1.8-2.72,3.31-3.34.89-.37,1.67-1.33,2.77-.64,1.21.76-.08,1.89.32,2.69,6.82-1.07,11.29-5.38,14.25-11.82.21-.46.57-1.11.94-1.14,2.43-.17,2.38-2.31,2.72-4.21,1.13-6.2-.37-12.41-1.41-18.79ZM682.28,106.97c-2.27,1.34-4.23,3.13-6.3,4.75-13.07,10.15-18.22,25.68-21.23,42.72-.26,1.46.25,1.72,1.38,1.35,2.8-.92,5.22-2.15,6.48-5.45,2.32-6.09,3.88-12.51,5.62-18.85,1.13-4.13,2.73-7.96,4.8-11.55,2.7-4.67,6.1-8.67,9.24-12.96ZM575.36,335.38c2.48-.36,2.59-.22,2.23,2.6-.14,1.09-.19,2.23-.09,3.35.13,1.5-.55,3.72.5,4.31,1.33.75,3.03-.32,4.29-1.25,3.92-2.92,7.64-6.11,10.39-10.42,2.45-3.85,4.72-7.87,5.7-12.77-9.05,2.58-17.55,5.83-23.02,14.19ZM686.53,231.44c1.91,3.33,4.42,4.93,7.52,5.35.77.1,1.43-.09,1.83-.85,1.66-3.13,4.2-4.21,7.59-3.59,1.76.32,2.44-.89,1.79-2.77-.5-1.47-1.19-2.93-1.41-4.42-.23-1.59-.82-2.03-2.15-2.14-4.42-.35-8.84-.88-13.17-2.53-1.03-.39-1.64-.02-2.08.95-1.48,3.31-1.03,6.76.08,10.01ZM683.73,312.4c1-.85,1.6-2.07.98-3.53-1.99-4.73-4.91-8.62-9.17-11.04-2.11-1.2-3.98-.51-5.12,1.61-1.44,2.66-1.94,5.58-1.44,8.87,1.05,6.91,5.66,9.84,11.14,6.77,1.23-.57,2.4-1.64,3.6-2.67M716.68,258.04c2.57,5.19,7.58,7.26,11.95,4.92,3.88-2.07,5.56-8.74,3.33-13.22-1.16-2.34-3.14-2.98-4.72-1.46-2.28,2.2-4.85,2.93-7.9,1.17-.97-.56-1.63-.29-2.3.4-1.82,1.86-1.97,4.93-.36,8.19ZM765.91,146.89c2.77,1.95,5.34,2.7,7.73,3.98,7.86,4.24,16.01,6.64,24.44,7.11,2.48.14,4.94.07,7.12-1.41-.83-1.13-2.58-.91-2.52-2.49.07-1.68,1.68-1.56,2.68-2.13.12-.07.28-.07.4-.15,1.98-1.16,3.81-2.52,4.94-4.78-14.2,7.06-29.38,1.96-44.8-.13ZM745.8,262.79c5.11-1.72,6.28-11.39.42-16.65-1.06-.95-1.89-1.06-2.82-.05-1.97,2.15-4.37,3.47-7.29,3.6-.85.04-1.44.33-1.15,1.42.53,1.95.31,3.83.29,5.75-.02,1.65.56,3.13,1.79,4.38,2.89,2.92,5.34,3.39,8.76,1.55ZM759.86,269.12c3.37-1.62,4.64-4.61,4.61-8.38-.02-3.78-1.86-6.67-4.7-8.9-.92-.72-1.79-.88-2.47.14-.72,1.09-1.71,1.53-2.95,1.38-1.27-.16-1.58.52-1.52,1.81.12,2.67-.73,4.94-1.96,7.06-1.61,2.79-.3,6.22,2.74,7.36,2.31.86,4.46.66,6.24-.48ZM656,228.78c-3.66,1.9-4.75,4.71-3.38,8.04.54,1.31,1.68,1.9,2.46,2.92,1.59,2.09,2.91,2.07,4.36.11,2.51-3.4,6.72-4.46,10.61-2.73.71.31,1.53,1.38,2.17.59.68-.85.81-2.11.5-3.38-.83-3.43-3.8-6.49-6.93-7.14-3.62-.75-6.81.39-9.79,1.6ZM587.69,143.07c.34-2.12-.37-3.36-1.79-4.59-6.34-5.5-13.02-10.34-20.05-14.54-5.16-3.08-10.24-6.35-15.09-10.06-3.16-2.42-3.5-2.26-3.91,1.75-.12,1.15.2,1.85,1.14,2.38,1.34.76,2.65,1.56,3.99,2.32,10.42,5.93,20.68,12.21,30.61,19.23,1.64,1.16,3.12,2.64,5.11,3.52ZM671.16,253.46c-1.3.62-2.42,1.56-3.34,2.68-1.14,1.39-1.45,3.06-.59,5.08.78,1.83,1.78,2.74,3.6,2.57,1.3-.12,2.6.54,3.78,1.27,1.06.65,1.69.49,2.38-.46,1.68-2.35,3.95-3.58,6.84-3.26,1.22.14,1.64-.47,1.85-1.63.58-3.21-1.35-6.32-4.69-7.33-3.51-1.06-6.74-.34-9.84,1.08ZM682.91,326.07c1.84,3.71,5,5.75,7.71,4.98,3.16-.9,4.74-4.03,4.2-8.32-.34-2.67-1.42-5.06-3.06-7.11-2.51-3.14-4.58-3.29-6.98-.71-.15.16-.29.33-.45.47-3.27,3.08-3.68,6.14-1.42,10.69ZM637.97,295.21c.29,3.18.68,6.01.77,8.81.1,3.34.95,6.31,2.92,9.09,3.45,4.87,8.26,7.2,12.9,10.3.21-1.77-.56-2.34-1.51-2.81-3.29-1.59-5.2-6.03-3.5-9.04.37-.66.34-1.25-.22-1.96-2.22-2.83-2.71-6.05-2.21-9.38.2-1.33-.19-2.03-1.35-2.28-2.59-.54-5.08-1.62-7.79-2.74ZM679.38,278.6c-3.19,1.67-3.87,3.28-3.21,7.47.13.8.2,1.61.17,2.4-.05,1.33.48,1.68,1.6,1.63,3.56-.15,6.91.79,9.79,3.71.71.72,1.22.67,1.83-.01,2.62-2.93,2.39-7.45-.65-12.06-2.28-3.45-6.35-4.79-9.53-3.13ZM772.59,269.99c2.86-1.59,5.34-6.09,5.9-10.39.23-1.76.25-3.51-.43-5.24-.85-2.17-2.46-2.99-4.4-3.38-1.85-.37-2.3.88-2.77,2.36-.22.71-.58,1.71-1.11,1.87-3.25,1.02-3.09,3.93-2.93,6.94.04.71-.05,1.48-.3,2.1-.93,2.38.59,3.83,1.98,5.25,1.34,1.37,2.81,1.39,4.05.5ZM667.66,267.11c-3.53,1.89-5.21,7.07-3.64,11.29.7,1.88,1.73,2.84,3.69,2.84,3.32,0,6.49.08,8.01-3.85.27-.71,1.11-1.11,1.72-1.61.55-.46.76-1.06.61-1.85-1-5.16-6.88-9.27-10.39-6.83ZM757.43,239.56c-1.8-3.66-5.1-6.33-8-6.71-1.74-.23-4.42-.35-4.52,1.37-.18,2.84.41,6.27,1.77,8.79,1.18,2.18,3.45,3.85,4.87,6.18,1.38,2.25,3.59,2.39,4.83.35,1.94-3.19,2.19-6.79,1.05-9.97ZM706.58,247.27c1.28,2.64,4.7,4.48,6.51,3.15,1.21-.89,2.1-2.39,2.87-3.82.57-1.06-.52-2.1-.89-3.14-1.06-3.03-1.44-6.01-.37-8.91.29-.78.73-1.44,0-2.41-1.54-2.05-3.6-2.5-5.4-1.05-3.54,2.85-4.99,11.49-2.73,16.17ZM594.46,355.15c-3.7.37-6.76.6-9.78,1-3.4.45-4.71,2.08-5.08,5.91-.23,2.36-.28,4.78-.99,7-.47,1.5.22,2.12,1.46,2.29,2.1.28,3.9-.43,5.6-1.58,4.77-3.21,5.63-9.44,8.79-14.63ZM792.04,254.4c-1.81-3.55-6.41-6.06-9.86-5.42-.77.14-1.23.57-1.56,1.32-.68,1.58.55,10.37,1.71,11.76.2.25.44.46.67.67,2.45,2.22,6.1,2.63,8.09.91,2.06-1.78,2.51-6.18.95-9.25ZM674.67,244.48c-1.85-3.42-4.68-5.13-8.18-5.24-2.6-.08-4.51,1.17-5.41,3.85-1.15,3.41-.26,6.59,1.99,9.47.85,1.09,1.95,2.21,3.16.99,2.31-2.33,5.04-3.7,8.24-4.08,1.43-.17,1.71-1.12,1.21-2.54-.27-.77-.62-1.51-1.01-2.44ZM742.5,237.07c-1.41-3.07-3.82-4.5-6.61-4.99-3.24-.56-5.09,1.49-4.77,5.07.13,1.4-.12,2.7-.41,3.99-.75,3.42.52,5.31,3.8,5.68,1.95.22,3.73-.27,5.34-1.19,3.51-2.01,4.39-5.06,2.66-8.57ZM724.45,246.88c2.39-1.84,4.15-4.7,4.16-8.78,0-4.1-2.49-6.64-6.12-6.16-2.62.35-4.76,1.62-5.64,4.41-1.08,3.45.36,6.61,2.35,9.49,1.4,2.03,2.92,2.34,5.25,1.04ZM715.23,310.51c-2.39-4.79-4.83-5.97-8.24-4.82-.78.26-1.46.58-1.32,1.74.32,2.72,0,5.28-.94,7.67-.29.72-.29,1.39.4,1.93,2.42,1.86,4.76,3.92,7.66,4.61,2.44.58,3.49-.25,3.7-3,.25-3.17-.35-6.25-1.26-8.12ZM690.5,255.82c-3.08,1.56-3.39,5.74-.59,8.36,1,.94,1.93,1.96,2.43,3.28.79,2.09,1.96,3.29,4.03,3.02.41-.05.89.05,1.29.23,1.48.64,2.11-.18,2.57-1.49,1.15-3.22.72-6.47-1-9.53-2.37-4.23-5.49-5.51-8.73-3.87ZM659.13,298.5c-3.04,1.7-4.04,3.98-3.41,7.2.29,1.51.74,3.03,1.29,4.47,1.1,2.87,2.66,3.59,5.07,2.36,1.32-.68,2.56-1.54,3.8-2.37.76-.51,1.09-1.3.96-2.4-.28-2.29-.04-4.48.57-6.6.16-.56.49-1.35-.32-1.67-2.86-1.13-5.77-3.19-7.96-.98ZM702.72,304.9c-.81-1.28-1.75-1.94-3.03-.52-2.06,2.28-4.69,3.57-7.71,2.56-2.2-.73-3.11.07-4.12,1.77-.77,1.3-.49,1.59.78,2.04,2.63.92,4.86,2.56,6.16,5.47.73,1.65,1.88,2,3.29,1.8,4.41-.61,7.21-8.23,4.63-13.12ZM711.23,293.27c-1.77-3.84-4.13-5.41-6.96-6.33-1.08-.35-1.56.29-2.15.96-.64.72-.65,1.44-.19,2.37,1.44,2.92,1.23,5.84.62,8.71-.61,2.84.97,4.71,3.67,4.31,1.4-.21,2.83-.41,4.26-.35,1.16.05,1.66-.47,1.98-1.56.89-3.13-.39-5.99-1.21-8.1ZM658.36,254.48c-1.78,1.45-3.62,3.05-4.57,5.57-.78,2.07-.56,4.17.57,6.24.29.52,7.41,2.66,7.76,2.27,1.16-1.29,2.41-2.53,3.3-4.05.56-.96-.72-2.05-.9-3.15-.16-.95-.29-1.92-.33-2.88-.13-2.91-3.47-5.32-5.82-4.01ZM721.88,227.75c.31.87.82,1.45,1.65,1.5,1.8.11,3.43.77,4.91,2.07.46.41,1,.46,1.36-.03,1.44-1.9,3.56-1.86,5.64-1.99,2.22-.14,4.21-3.09,3.89-5.65-.19-1.52-.75-2.21-2.19-1.76-1.48.46-3.01.83-4.55,1.08-3.52.56-7.04-.16-10.54-1.27-1.44-.46-1.93.06-1.52,1.61.4,1.49.89,2.97,1.35,4.45ZM768.41,234.68c1.08-.49.99-1.39.66-2.42-1.38-4.31-6.29-7.91-10.19-7.47-2.16.25-3.05,1.43-3,3.87.02.96-.03,1.92-.14,2.86-.23,2.08,1.49,4.49,3.37,4.51,1.74.02,3.45,0,5.16.76.52.23,1.02.14,1.36-.33.72-1,1.68-1.57,2.77-1.79ZM654.74,214.48c.93,3.02,1.89,5.86,2.66,8.75.52,1.94,1.27,2.69,3.11,2.26,3.25-.76,6.42.06,9.47,2.09,3.6,2.39,5.11,1.48,5.19-2.91.03-1.54-.5-1.83-1.76-2.11-3.67-.8-7.32-1.78-10.77-3.74-2.57-1.46-5.17-2.85-7.9-4.35ZM662.37,280.87c-1.12-2.35-1.79-4.79-1.46-7.29.22-1.67-.42-2.34-1.76-2.8-2.45-.86-4.52-.12-5.55,2.31-1.36,3.19-1.31,6.56.33,9.96,1.91,3.98,4.9,4.54,7.35,1.43.27-.34.54-.72.89-.94,1.13-.7,1.21-1.56.21-2.66ZM692.26,333.1c-.07.03-.57.33-1.12.45-1.55.34-1.97,1.52-1.84,3.15.36,4.27,6.76,9.05,10.25,7.66,2.18-.87,2.89-2.87,1.76-5.27-.64-1.36-1.14-2.75-1.16-4.21-.02-1.44-.72-1.94-1.78-2.71-1.91-1.39-3.35-1.6-4.76.17-.21.27-.61.35-1.36.76ZM713.26,331.42c-1.31-2.65-3.46-3.71-4.62-2.17-1.38,1.84-3.07,3.02-5.2,3.55-.88.22-1.51.72-1.54,1.88-.09,3.71,3.07,7.47,6.43,7.6,4.81.18,7.48-5.71,4.93-10.87ZM753.16,226.22c-2.01-4.15-6.2-6.98-9.47-6.48-1.51.23-2.33,1.16-2.02,2.89.42,2.33-.21,4.24-1.05,6.14-.28.62-1.14,1.27-.2,2.04.85.69,1.7,1.91,2.91,1.09,2.54-1.72,5.36-1.73,8.3-.77,1.73.57,2.25-.26,2.21-1.96-.03-1.06-.2-2.1-.69-2.95ZM681.06,264.83c-2.65,1.49-2.94,2.66-1.48,5.71.39.81.71,1.66.97,2.52.33,1.07.89,1.69,1.92,1.76,1.87.12,3.6,1,5.18,2.15,1.17.86,1.85.6,2.51-.44,1.54-2.42,1.31-6.43-.54-8.79-2.71-3.45-5.77-4.49-8.57-2.91ZM592.2,285.9c.03-.19.07-.39.1-.58-1.85-1.94-3.51-4.23-5.59-5.74-3.84-2.8-7.9-5.63-12.02-1.66-.2.2-.49.29-.74.43-2.79,1.55-2.8,2-.02,4.4.53.46,1.14,1.02,1.73,1.12,5.51.91,11.02.84,16.54,2.04ZM665.36,285.12c-.44.3-1.07.65-1.61,1.12-2.3,2.01-2.3,4.39-.06,7.82,1.54,2.36,4.3,3.11,6.42,1.76,2.72-1.74,4.23-6,3.52-9.59-.27-1.35-.87-2.03-2.06-2.19-2.15-.28-4.14.12-6.2,1.08ZM676.8,330.98c-.13-1.51-1.13-2.09-2.51-2.41-1.69-.39-3.14-1.47-4.52-2.71-2.06-1.84-2.78-1.54-2.93,1.29-.28,5.44,3.38,10.31,7.23,12.2,2.14,1.05,4.55-.05,5.69-2.19.5-.93.6-1.59-.37-2.46-1.06-.95-1.93-2.15-2.59-3.73ZM781.01,277.1c.71-.55,1.56-1.1,2.29-1.79,1.49-1.41,2.87-2.95,2.47-5.54-.46-3-2.84-4.13-4.76-5.66-.67-.53-1.05.04-1.29.66-1.23,3.28-3.04,5.99-5.68,8.01-1.1.84-1.11,2.61-.86,3.92.26,1.34,1.74,1.36,2.8,1.52,1.79.28,3.36-.44,5.03-1.13ZM699.71,291.31c-.42-.97-.47-1.02-1.26-1.22-3.05-.78-4.07-.26-5.24,2.66-.23.56-.41,1.21-.79,1.61-1.79,1.85-2.2,4.13-1.88,6.98.28,2.53.67,3.21,3.03,3.07,5.08-.3,8.51-7.63,6.14-13.1ZM704.34,330.36c3.14-1.64,4.64-5.19,3.42-7.89-.88-1.94-2.67-2.68-4.15-3.73-1.51-1.07-1.85,1.23-3.01,1.35-.07,0-.13.08-.2.08-3.65-.36-3.99,2.08-3.44,5.31.07.39-.04.79-.04,1.19,0,2.54,1.13,4.01,3.41,4.3,1.46.19,2.89.15,4.01-.6ZM700.78,276.24c-1.2-2.06-2.99-3-5.17-3.13-2.04-.12-1.73,1.98-2.47,3.13-1.68,2.6-1.38,5.08.03,8.05,1.09,2.29,2.48,3.46,4.59,2.73,3.69-1.28,5.23-6.57,3.03-10.78ZM767.45,243.28c-1.21-2.34-3.14-4.13-5.96-4.44-1.25-.14-1.95.18-1.62,1.81.3,1.45.37,2.95-.02,4.28-.7,2.42-.35,4.18,2.09,5.41.89.45,1.59,1.52,2.35,2.33,1.93,2.07,3.81,1.68,4.46-1.04.65-2.7.15-5.37-1.31-8.34ZM657.16,323.78c.81,1.28,1.71,2.59,3.1,3.41,2.58,1.54,4.01.77,5.2-1.89,1.17-2.61.28-4.92-.29-7.54-.56-2.58-.94-3.99-3.35-2.34-.27.18-.69.12-1.05.13-4.45.18-5.99,3.57-3.62,8.23ZM652.24,267.28c-1.31-2.43-3.23-2.86-4.91-1.09-3,3.17-3.73,7.27-2.79,11.95.27,1.37.93,2.61,2.12,3.42,1.05.71,2.04.82,3.07.23.98-.57.65-1.54.61-2.49-.14-3.42-.02-6.78,2.02-9.37.76-.97.62-1.8-.12-2.64ZM745.39,275.19c2.06,4.31,7.65,5.89,10.5,2.99,1.1-1.12,1.23-2.55.9-4.13-.32-1.56-1.52-1.39-2.48-1.58-2.98-.58-5.27-2.16-6.31-5.58-.21-.69-.5-1.29-1.23-1.09-.75.2-1.63.46-1.41,1.63.33,1.76-.07,3.33-.42,4.93-.21.95,0,1.91.45,2.82ZM741.13,272.57c.34-.25.71-.48,1.03-.76,1.07-.93,1.47-2.18,1.13-3.76-.36-1.69-1.63-1.47-2.64-1.71-2.07-.49-3.96-1.42-5.37-3.33-.99-1.34-1.72-1.39-2.47-.04-.21.38-.58.64-.87.97-2.07,2.3-.92,7.28,2.05,8.64,2.45,1.12,4.84,1,7.15,0ZM591.26,145.93c2.72,2.3,5.26,4.38,7.74,6.56,9.01,7.91,17.31,16.6,24.33,26.78,1.66,2.41,3.1,4.97,4.74,7.38.71,1.04,1.49,2.32,2.63,1.32,1.06-.93-.2-1.83-.73-2.62-1.59-2.35-3.17-4.72-4.86-6.99-9.07-12.14-19.99-22.06-30.78-32.12-.92-.86-1.78-1.15-3.07-.31ZM668.07,320.91c1.43,2.35,3.34,4.66,6.24,5.63.72.24,1.57.56,1.88-.39.56-1.75,1.48-3.06,2.88-4.06.8-.57.51-1.9.38-2.92-.09-.7-.66-.41-1.06-.33-4.25.86-7.5-1.02-9.9-5.29-.27-.48-.46-1.19-1.1-1.05-.61.13-.87.73-.92,1.4-.17,2.31.43,4.49,1.59,7ZM708.94,274.99c-.76-1.93-1.97-3.73-3.77-4.97-.75-.52-1.71-1.43-2.23-.24-.51,1.17-2.08,2.27-.68,3.97,2.07,2.51,2.21,5.37,2.08,8.26-.11,2.54,1.61,4.1,3.79,3.26,1.44-.55,2.21-1.74,2.52-3.4.45-2.44-.42-4.6-1.71-6.88ZM699.94,235.05c-2.36,1.58-3.28,3.94-3.57,6.72-.22,2.09.38,3.77,2.24,4.93,1.52.94,2.81,2.25,3.82,3.86.41.65.79,1.28,1.58.8.79-.48,1.07-1.13.55-2.16-2.03-4.06-1.99-8.12-1.06-12.21.48-2.1.02-2.64-1.93-2.36-.63.09-1.23.31-1.64.41ZM654.52,244.07c-4.31,2.32-6.3,7.78-4.58,11.49.96,2.07,2.04,2.3,3.24.76,1.43-1.84,2.8-3.79,5.04-4.57.94-.32.78-1.05.49-1.92-.49-1.48-.89-2.98-.74-4.53.15-1.53-.65-1.89-1.73-1.72-.76.11-1.49.41-1.72.48ZM767.19,278.54c1.57-.9,2.9-1.44,3.59-2.9.55-1.16.67-2.03-.9-2.44-1.39-.36-2.67-1.14-3.6-2.41-1.1-1.5-2.06-1.72-3.17-.42-.32.38-.74.81-1.19.88-2.59.43-2.89,2.23-2.59,4.88.23,2.06,1.06,2.98,2.69,3.31,2.01.41,3.86,0,5.17-.9ZM728.53,273.16c1.12-.67,1.04-2.11.46-3.7-.5-1.37-.56-3.09-2.68-2.8-2.54.35-5.04-.4-7.29-2.16-1.41-1.11-2.52-.77-3.37.44-.81,1.14-.2,2.3.67,3.22,2.81,2.98,6.02,4.99,9.79,5.54.74.11,1.43.03,2.43-.53ZM642.39,259.91c1.53,3.03,3.82,3.86,7.6,2.84.79-.21,1.2-.63,1.33-1.5.15-.98-.34-1.53-1.05-1.95-2.5-1.46-3.1-3.86-3.15-6.59-.02-.94.81-2.21-.46-2.78-1.27-.58-2.56-.33-3.51.81-1.79,2.14-2.14,6.43-.75,9.18ZM718.29,230.27c.78-.42,1.76-.53,1.22-1.84-1.03-2.45-1.48-4.97-1.74-7.57-.19-1.82-1.83-2.29-3-2.51-1.53-.29-.66,1.38-.68,2.11-.14,3.41-.5,3.81-3.59,3.38-.94-.13-1.88-.26-2.82-.34-.57-.05-1.32-.15-1.35.69-.04,1.19.14,2.43.75,3.53.41.75,1,.65,1.53.34,2.73-1.6,5.17-.4,7.35,1.88.97,1.01,1.64.87,2.33.32ZM677.3,228.19c.22.49.73.69,1.23.84,1.47.46,2.71,1.39,3.83,2.56.38.4.73,1.01,1.3.76.68-.3.48-1.02.33-1.66-.9-3.71-.78-7.23.72-10.48.23-.49.32-.98-.11-1.56-1.76-2.37-3.66-2.3-4.62.23-.29.76-.79,1.2-1.33,1.69-1.45,1.32-2.27,5.94-1.35,7.62ZM676.12,293.51c-.41.23-.82.46-.82.99,0,.86.71,1.02,1.2,1.3,3.13,1.79,5.8,4.19,7.91,7.39.56.85.83,2.42,1.79,2.35,1.14-.08,1.24-1.68,1.64-2.72.18-.48.2-1.08.21-1.63.07-2.86-1.16-5.01-3.38-6.59-2.84-2.03-5.7-2.07-8.55-1.09ZM679.88,243.73c-1.24.66-1.9,1.61-1.64,3.37.28,1.88,1.31,2.36,2.75,2.62,2.07.38,3.96,1.37,5.46,3.17.69.83,1.29,1.01,2.09.55.75-.43,1.5-.82,1.41-2.02-.21-3-1.64-5.22-3.9-6.91-2.03-1.51-4.09-1.82-6.17-.77ZM643.06,295.32c-1.11-3.01-1.42-5.63-1.2-8.26.02-.3,0-.76-.18-.92-1.86-1.77-3.04-4.79-6.08-4.44-1.05.12-2.17-.1-3.25-.14-.4-.02-.96-.27-1.11.32-.13.54.36.86.69,1.17,2.04,1.9,3.39,4.35,4.35,6.97,1.24,3.37,3.72,4.24,6.77,5.29ZM777.44,243.09c-.97-1.72-2.1-3.3-3.67-4.39-1.53-1.06-3.1-1.6-4.77-.83-1.27.59-1.59,1.28-.38,2.63.67.76,1.5,1.77,1.59,2.68.39,3.77,2.09,5.23,5.46,5.69,2.79.38,3.24.43,2.73-2.76-.17-1.05-.43-2.07-.95-3.03ZM650.62,290.8c2.55,5.09,4.79,6.44,8.31,5.08.76-.29,2.37-.21,1.66-1.67-.79-1.65.05-4.43-2.64-4.88-2.38-.4-4.31-1.62-5.8-3.87-1.01-1.52-1.87-1.44-2.37.22-.56,1.85.01,3.63.84,5.11ZM731,277.12c1.95,4.17,9.14,5.99,11.88,3.06.39-.41.69-.97.91-1.53.41-1.08-.2-2.02-.74-2.94-.55-.92-1.27-.7-1.96-.5-2.68.79-5.36.63-8.07-.72-.71-.36-1.39-.54-1.92.27-.51.78-.56,1.56-.1,2.36ZM708.55,260.08c-.31-.43-.77-1.09-1.25-1.73-.91-1.23-2.19-2.47-3.36-1.81-1.07.6-1.73,2.36-1.46,3.85.57,3.12.54,6.79,4.36,8.02.19.06.37.29.53.46,1.31,1.38,1.97.65,2.28-.73.59-2.63.05-5.23-1.11-8.06ZM622.48,201.83c.27-.21.54-.43.82-.62,2.38-1.56,4.29-3.87,6.95-4.95,1.63-.67,3.33-1.17,4.99-1.8.77-.29,1.35-.86,1.26-1.89-.08-1.05-.78-1.55-1.6-1.87-1.08-.43-2.15-.49-3.21-.24-5.39,1.28-8.03,5.52-9.22,11.37ZM780.62,232.3c-1.74-3.25-3.95-4.47-6.55-4.8-3.28-.41-4,.63-2.99,4.12.11.39.24.81.23,1.19-.02,1.32.59,1.95,1.67,2.59,1.66,1,2.98,1.16,4.26-.27.58-.65,1.44-.96,2.32-.99,1.82-.06,1.49-1.1,1.06-1.84ZM785.54,241.25c-1-2.31-2.22-3.86-4.12-4.59-1.36-.53-2.45.06-3.31.98-.89.96.09,1.93.52,2.83.74,1.55,1.62,3.03,2.1,4.71.16.56.3,1.26.89,1.32,1.5.17,3.31,1.01,4.4.04,1.13-1.01.49-2.96-.1-4.53-.14-.38-.36-.73-.37-.77ZM686.85,240.29c-.86-2.03-2.55-2.82-4.2-3.59-2.25-1.05-4.55-1.48-6.78-.58-1.53.62-2.11,2.29-1.41,3.83.89,1.95,2.47,2.69,3.94,1.76,2.33-1.47,4.77-1.07,7.29.09.5.23,1.15.79,1.55.06.28-.51-.17-1.07-.39-1.58ZM689.03,340.79c-.86-2.47-2.64-3.02-4.62-3.38-1.97-.36-4.31,1.13-4.5,3.36-.18,2.13,1.37,3.14,2.88,3.98,1.94,1.08,3.75.67,5.33-.41,1.09-.75,1.8-1.94.91-3.56ZM716.54,288.43c-.65-1.68-1.8-2.66-3.31-3.19-1.39-.48-1.88.72-2.57,1.51-.59.67-.13,1.34.36,1.91,2.2,2.58,3,5.72,3.66,8.95.14.69-.17,1.87.84,2.01.84.11,1.35-.7,1.62-1.56.97-3.18.77-6.39-.59-9.63ZM650.08,307.1c.21.36.57,1.1,1.04,1.74.66.89,1.51,1.48,2.51,1.05,1.09-.47.37-1.5.24-2.29-.39-2.33-.91-4.75.04-6.82.8-1.74.06-2.64-1.17-3.56-1.45-1.08-2.38-.21-3.05.9-1.63,2.7-1.31,5.63.38,8.98ZM638.37,269.28c.58.81.73,2.27,2.19,2.34,1.53.07,2.04-1,2.42-2.35.21-.74.48-1.5.89-2.08,1.13-1.59,1.06-2.73-.95-3.7-.68-.33-1.27-1.2-1.74-1.94-.9-1.43-1.68-1.06-2.47-.2-1.59,1.72-1.75,4.97-.34,7.93ZM711.93,266.9c.91-.83.73-1.74.95-2.45q1.45-4.65.27-9.4c-.11-.47-.08-1.22-.53-1.26-1.98-.16-3.98-1.59-5.93-.52-1.1.61-1.39,1.3,0,2.15,2.79,1.7,3.94,4.53,4.61,7.67.25,1.16.39,2.35.62,3.82ZM792.93,272.26c2.89-1.51,4.16-5.06,2.77-7.62-.71-1.3-1.41-1.99-2.38-.45-.9,1.42-2.18,2.53-3.79,2.57-2.98.06-1.47,2.42-1.49,3.92-.03,1.91,1.38,1.86,2.5,2.02.87.13,1.72-.02,2.39-.45ZM647.62,239.47c-1.56,1.19-3.09,2.62-3.52,4.99-.18,1-.56,2.52.77,2.89,1.23.34,2.85,1.57,3.78-.52.84-1.88,2.09-3.38,3.72-4.5,1.22-.84,1.02-2.09-.41-2.87-1.45-.79-2.83-.44-4.35.01ZM758.77,219.95c-1.22-2.09-2.89-3.66-4.96-4.45-1-.38-3.02-1.12-2.96.16.07,1.57-1.42,3.16.62,5.16,2.14,2.1,3.75,3.77,6.2,1.65.05-.04.14-.04.21-.04,1.83,0,1.76-1.01.9-2.48ZM652.12,208.75c.45,1.39,1.12,1.96,1.81,2.46,5.94,4.24,12.12,7.76,18.97,9.1,1.03.2,2.82,1.24,2.98-.39.15-1.58-1.77-2.04-2.95-2.29-7.2-1.53-14.05-4.3-20.8-8.88ZM700.8,251.93c-.35-.6-.63-1.2-1.01-1.72-1.37-1.91-3.14-2.93-5.21-2.83-1.64.08-2.49,1.21-2.54,3.07-.05,1.83,1.14,1.76,2.23,2.01,1.9.44,3.61,1.38,5.12,2.93.6.62,1.05,2.22,1.91,1.64.92-.61.58-2.14.24-3.33-.18-.62-.49-1.21-.73-1.77ZM586.77,323.3c-.1-.21-.19-.42-.29-.63-.35,0-.69.01-1.04.03-4.09.15-7.39,2.89-11.43,3.22-.59.05-.88.54-.79,1.16.3,2.03.24,4.06.22,6.68,4.67-3.81,7.81-8.89,13.33-10.46ZM626.77,276.68c.61,1.28,1.51,2.06,2.73,2.46,1.51.49,3.01.53,4.52.59,3.82.16,3.77.18,3.85-3.89.03-1.39-.27-1.69-1.47-1.41-2.83.65-5.69,1.21-8.7.72-.46-.07-1.11-.53-1.31.17-.1.35.24.9.37,1.36ZM644.57,293.22c.31.57.59,1.17.95,1.7.94,1.34,2.04,1.99,3.39,1.08,1.38-.93,1.36-2.04.24-3.53-1.31-1.75-1.79-3.81-1.82-5.96-.01-.93.33-2.02-.97-2.33-1.11-.27-1.77.4-2.13,1.41-.89,2.48-1.09,5.02.34,7.64ZM697.41,350.04c.09-.09.35-.24.5-.49.45-.73,1.47-1.25,1.13-2.31-.3-.93-1.3-.43-1.96-.72-.97-.42-1.97-.7-2.92-1.17-3.08-1.53-3.45-1.45-5.49,1.09-.7.87-.39,1.49.3,2.24,2.01,2.18,5.62,2.82,8.45,1.36ZM793.9,244.45c-1-2.02-2.06-3.99-4.28-4.49-1.17-.26-2.06-.09-1.51,1.72.45,1.5.54,3.06.33,4.56-.17,1.24.41,1.81,1.23,2.61,1.48,1.44,2.57-.22,3.88.14,1.72.47,1.82-.62,1.38-2.04-.26-.85-.67-1.67-1.02-2.5ZM678.73,330.88c1.62,3.12,4.23,4.45,7.24,4.96.94.16,1.47-.3,1.67-1.29.12-.61.08-1.09-.57-1.37-3.2-1.37-5.18-4.11-6.71-7.38-.69-1.48-1.51-1.22-2.05-.09-.78,1.64-.43,3.36.41,5.16ZM655.88,226.78c.34-1.71,0-2.94-.39-4.12-.69-2.1-1.36-4.21-2.21-6.24-2.47-5.91-5.37-11.57-9.49-16.41-.72-.84-1.6-1.55-2.38-.4-.7,1.03.29,1.62.9,2.13,5.57,4.69,8.44,11.26,11.15,17.98.86,2.14.75,4.59,2.42,7.06ZM644.39,235.03c-1.04.9-2.35,1.54-3.09,2.89-.72,1.31-1.06,2.74.04,4.22.48.64,1.07,1.08,1.48.03,1.22-3.12,3.77-4.29,6.5-5.19.47-.16,1.04-.19,1.1-.86.06-.77-.5-1.16-1.03-1.49-1.83-1.15-3.34-.09-5,.39ZM604.74,152.29c1.53,1.85,3.06,3.75,5.17,4.63,4.89,2.04,9.9,3.33,14.97,4.18.72.12,1.45.24,2.17.29.7.05,1.46.47,2.47-.25-8.8-1.69-16.89-4.73-24.78-8.85ZM639.74,257.82c-.29-3.74.72-6.79,2.6-9.56.54-.79.17-2.67-1.01-3.46-1.32-.88-1.95.33-2.5,1.31-1.7,3.09-1.39,8.58.9,11.71ZM706.2,348.8c1.32-1,2.59-1.91,2.42-3.55-.14-1.39-1.72-.88-2.56-1.5-.31-.23-.67-.36-1.02-.53-.64-.3-1.25-.54-1.73.19-.65.99-1.44,1.88-1.99,2.94-.92,1.77-.11,3.2,1.82,3.13,1.12-.04,2.2-.49,3.06-.69ZM602.77,136.03c-3.33-3.04-9.62-2.7-11.43.59-.36.65-.84,1.34-.15,2.15.58.68,1.26.43,1.79.08,2.13-1.39,4.55-1.83,7.01-2.2.93-.14,2.05.37,2.78-.61ZM622.89,204.23c-3.68,5.96.34,12.95-.6,19.3,2.49-6.1-.11-12.92.6-19.3ZM797.04,254.66c-.67-1.46-1.37-2.74-2.73-3.37-.35-.16-.73-.25-1.01.04-.33.34-.11.75.11,1.09,1.55,2.33,1.75,4.87,1.54,7.47-.07.8.17,1.47.89,1.81.91.43,1.33-.26,1.66-.95.96-2.04.77-4.11-.47-6.08ZM629.37,362.91c-1.05,4.11-1.71,8-3.44,11.74,5.31-2.32,6.68-6.86,3.44-11.74ZM651.66,316.8c-.15-.27,0,.02.17.3.48.8,1.34,1.85,1.88,1.52,1.44-.88,1.51-3.09,2.75-4.32.4-.39-.32-1.31-.79-1.58-1.44-.83-3.02-.99-4.27-.13-1.27.87-.72,2.34.26,4.21ZM640.78,281.84c.64.58.65,2.5,2.01,1.86,1.1-.51.97-1.83.37-3.11-.69-1.48-.98-3.08-1.15-4.69-.07-.71.34-1.79-.75-1.97-.88-.14-1.39.65-1.6,1.51-.53,2.17.11,4.24,1.11,6.4ZM718.05,303.8c-.33-.69-.65-1.63-1.66-1.54-.76.07-1.6.05-2.04.89-.56,1.07.27,1.74.76,2.55.71,1.17,1.31,2.42,1.99,3.61.19.32.48.74.76.81.54.14.61-.47.77-.88.72-1.79.18-3.56-.57-5.45ZM610.88,372.67c-.43,3.04-.65,6.04-2.09,8.53-.2.34-.2.79.12,1.1.5.48.95.15,1.37-.1,3.51-2.08,3.77-5.32.6-9.52ZM673.91,232.27c.34,1.11,1.01,1.59,2.15,1.45,1.05-.12,2.15.02,3.23.04.53,0,1.3.52,1.48-.32.16-.75-.43-1.39-1.01-1.79-1.6-1.11-3.3-1.32-5.06-1.28-1.29.03-1.76.43-.79,1.9ZM684.93,235.69c.69,1.32,7.39,5.37,8.81,5.36.43,0,.64-.22.72-.65.11-.64-.08-1.19-.7-1.3-2.91-.53-5.4-2.08-7.65-4.31-.35-.34-.83-.36-1.17.04-.2.24-.22.55-.01.86ZM692.93,245.83c.55-.42,1.9-.16,1.36-1.69-.41-1.16-3.58-2.68-4.44-2.12-.99.65-.69,1.66-.24,2.71.82,1.9,1.83,2.6,3.32,1.09Z"/>
  <path class="st3" d="M458.64,98.21"/>
  <g>
    <path class="st4" d="M535.97,110.68c-.79,0-1.6-.17-2.36-.54-35.39-16.87-73.22-25.17-112.44-24.68-.02,0-.05,0-.07,0-3.01,0-5.46-2.42-5.5-5.43-.04-3.04,2.39-5.53,5.43-5.57,40.92-.51,80.39,8.15,117.31,25.75,2.74,1.31,3.91,4.59,2.6,7.33-.94,1.98-2.91,3.13-4.97,3.13Z"/>
    <g>
      <path class="st4" d="M377.16,634.36l-11.65,45.18-18.01-4.65c-12.79-3.3-17.25-12.5-13.35-27.59,3.88-15.03,12.45-20.83,25.71-17.41l17.31,4.47ZM363.59,634.85l-3.31-.85c-3.03-.78-5.49.04-7.36,2.46-1.87,2.42-3.72,7.2-5.56,14.33-1.84,7.13-2.53,12.2-2.07,15.21.46,3.01,2.21,4.91,5.27,5.7l3.31.85,9.72-37.7Z"/>
      <path class="st4" d="M306.89,661.33l16.99-43.45,12.12,4.74-16.99,43.45-12.12-4.74Z"/>
      <path class="st4" d="M276.23,631.89l5.9,1.75c-.81.99-1.41,1.86-1.8,2.61-2.5,4.81-.93,8.68,4.69,11.59,4.44,2.3,7.51,1.79,9.23-1.53,1.29-2.49-.08-5.91-4.12-10.26-7.8-8.38-9.96-15.92-6.49-22.62,2.04-3.92,5.01-6.38,8.93-7.36,3.92-.99,8.1-.32,12.56,1.99,9.86,5.11,12.73,11.65,8.61,19.6-.34.65-.8,1.42-1.39,2.32l-6.23-1.62c1.34-1.54,2.35-2.96,3.02-4.25,2.66-5.14,1.17-9.17-4.5-12.11-4.53-2.35-7.76-1.67-9.68,2.03-1.43,2.75.03,6.58,4.38,11.47,6.29,7.06,7.73,13.88,4.32,20.45-1.93,3.72-4.79,6.04-8.59,6.96s-7.83.27-12.09-1.93c-8.75-4.54-11.01-10.91-6.76-19.1Z"/>
      <path class="st4" d="M233.98,619.13l2.67-3.84,9.04,6.29,23.97-34.46,11.33,7.88-23.97,34.46,9.09,6.32-2.67,3.84-29.47-20.49Z"/>
      <path class="st4" d="M259.2,579.63l-31.62,34.31-14.19-13.08c-3.69-3.4-5.89-6.93-6.61-10.58-.72-3.65.17-6.83,2.68-9.55,3.83-4.16,8.69-4.68,14.59-1.57-1.57-3.18-2.19-5.66-1.88-7.45.32-1.78,1.84-4.41,4.56-7.88,3.25-4.14,4.97-7.25,5.18-9.36l10.39,9.58c-.81,2.2-2.31,4.49-4.5,6.87l-1.83,2.08-2.31,2.61c-3.64,3.95-3.94,7.34-.87,10.16l1.64,1.51,15.2-16.49,9.57,8.82ZM231.81,590.14l-1.93-1.78c-3.63-3.34-7.25-3.04-10.88.89s-3.63,7.58,0,10.92l1.93,1.78,10.89-11.81Z"/>
      <path class="st4" d="M175.03,558.66l3.61-2.98,10.23,12.4,10.89-8.98-8.6-10.42,3.61-2.98,8.6,10.42,14.26-11.77-11.96-14.5,3.61-2.98,20.25,24.54-35.99,29.69-18.51-22.44Z"/>
      <path class="st4" d="M151.63,523.08l3.95-2.52,5.92,9.28,35.38-22.58,7.43,11.64-35.38,22.58,5.96,9.34-3.95,2.52-19.31-30.25Z"/>
      <path class="st4" d="M134.5,487.98l4.22-2.03,4.78,9.92,37.81-18.23,6,12.44-37.81,18.23,4.81,9.98-4.22,2.03-15.59-32.33Z"/>
      <path class="st4" d="M125,463.29c-4.06-12.41,1.56-21.12,16.85-26.12,15.29-5,25-1.18,29.14,11.46,4.13,12.64-1.62,21.52-17.25,26.63-14.94,4.89-24.52.9-28.73-11.98ZM128.65,462.48c.76,2.33,2.62,3.47,5.56,3.42,2.94-.05,8.21-1.32,15.79-3.8s12.57-4.57,14.98-6.27c2.41-1.7,3.23-3.71,2.46-6.04-.76-2.33-2.62-3.47-5.56-3.42-2.94.05-8.21,1.32-15.79,3.8-7.56,2.47-12.55,4.56-14.96,6.26-2.42,1.7-3.24,3.72-2.48,6.05Z"/>
      <path class="st6" d="M109.15,383.11l47.06-5.42,1.37,11.92-2.95.34c2.72,1.72,4.27,4.25,4.66,7.6.85,7.4-4.63,11.78-16.45,13.14-12.16,1.4-18.69-1.82-19.59-9.66-.36-3.09.78-5.71,3.39-7.87l-15.42,1.78c-.41-3.59-1.11-7.54-2.09-11.84ZM127.81,396.61c.23,2,2.26,2.78,6.08,2.34l7.29-.61,6.61-.89c4.23-.49,6.22-1.86,5.96-4.13-.25-2.2-2.46-3.06-6.63-2.58l-8.37.8-5.67.92c-3.74.78-5.5,2.17-5.27,4.15Z"/>
      <path class="st6" d="M143.43,348.76l1.49-4.83c7.95.54,11.91,5.07,11.87,13.59-.04,11.04-5.8,16.54-17.26,16.5-5.56-.02-10.11-1.51-13.65-4.46-3.54-2.95-5.3-6.72-5.29-11.3.04-9.58,6.48-14.34,19.34-14.29l-.07,17.49c9.02.04,13.54-2.15,13.56-6.55.02-4.12-2.53-6.19-7.63-6.21-.68,0-1.47.02-2.36.06ZM135.99,361.48l.03-7.17c-8.02-.03-12.04,1.11-12.05,3.44,0,2.1,2.96,3.3,8.91,3.59l3.11.14Z"/>
      <path class="st6" d="M110.4,323.95l47.17,4.03-1.02,11.95-46.49-3.97c.28-3.3.4-7.3.34-12.01Z"/>
      <path class="st7" d="M150.2,269.32l2.84-5.01c1.17.21,2.17.42,3.01.64,4.39,1.12,7.51,3.55,9.35,7.28,1.84,3.73,2.11,8.16.79,13.3-3.3,12.88-12.49,17.4-27.57,13.53-7.15-1.83-12.47-5.2-15.96-10.09-3.48-4.9-4.46-10.36-2.91-16.39,2.41-9.4,8.31-12.9,17.72-10.49l1.2,6.07c-1.31-.4-2.33-.7-3.05-.88-6.67-1.71-10.66,0-11.97,5.14-1.39,5.43,4.99,9.96,19.14,13.59,12.16,3.12,19.02,1.64,20.58-4.43.64-2.5.14-4.86-1.51-7.05-1.65-2.2-4.03-3.7-7.14-4.49-.99-.25-2.5-.49-4.51-.71Z"/>
      <path class="st7" d="M134.04,230.22c5-12.07,14.93-15.02,29.79-8.87,14.86,6.15,19.75,15.38,14.66,27.67-5.09,12.29-15.23,15.29-30.43,8.99-14.53-6.02-19.2-15.28-14.02-27.79ZM137.34,231.98c-.94,2.27-.27,4.34,2,6.22,2.27,1.88,7.09,4.34,14.46,7.39,7.37,3.05,12.52,4.72,15.45,4.99,2.93.28,4.87-.72,5.81-2.99.94-2.27.27-4.34-1.99-6.22-2.27-1.88-7.09-4.34-14.46-7.39-7.35-3.04-12.49-4.7-15.43-4.99-2.94-.28-4.88.71-5.82,2.98Z"/>
      <path class="st7" d="M169.23,166.74l39.75,24.43-6.57,10.7-27.66-17,23.09,24.45-3.8,6.19-31.9-9.07,27.2,16.71-2.29,3.72-39.75-24.43,6.92-11.26,28.02,8.19-19.99-21.27,6.99-11.37Z"/>
      <path class="st7" d="M204.93,124.33l35.05,30.8-8.29,9.43-24.39-21.44,18.62,28-4.8,5.46-29.9-14.33,23.98,21.07-2.89,3.28-35.05-30.8,8.72-9.93,26.23,12.81-16.1-24.34,8.81-10.02Z"/>
      <path class="st7" d="M236.78,96.83l3.02,3.58-12.28,10.36,9.1,10.79,10.33-8.71,3.02,3.58-10.33,8.71,11.92,14.13,14.37-12.12,3.02,3.58-24.32,20.52-30.09-35.66,22.23-18.76Z"/>
      <path class="st7" d="M271,129.25l-24.83-39.5,16.34-10.27c4.25-2.67,8.23-3.87,11.94-3.61,3.71.26,6.55,1.96,8.51,5.08,3.01,4.78,2.24,9.61-2.31,14.49,3.48-.68,6.04-.63,7.68.14,1.64.77,3.78,2.93,6.41,6.47,3.14,4.22,5.7,6.7,7.67,7.45l-11.97,7.52c-1.91-1.35-3.73-3.4-5.45-6.14l-1.53-2.31-1.91-2.92c-2.86-4.55-6.06-5.72-9.58-3.51l-1.89,1.19,11.93,18.98-11.02,6.93ZM268.03,100.07l2.23-1.4c4.17-2.62,4.84-6.2,1.99-10.74-2.85-4.53-6.36-5.49-10.54-2.87l-2.23,1.4,8.55,13.6Z"/>
      <path class="st7" d="M325.61,78.95l5.69-.84c.55,1.05,1,1.97,1.35,2.77,1.81,4.16,1.81,8.11,0,11.85-1.81,3.75-5.15,6.68-10.01,8.79-12.2,5.31-21.4.83-27.61-13.44-2.95-6.77-3.56-13.03-1.83-18.79,1.72-5.76,5.44-9.88,11.15-12.36,8.9-3.87,15.29-1.36,19.16,7.54l-4.06,4.67c-.49-1.28-.88-2.26-1.18-2.95-2.75-6.31-6.55-8.41-11.41-6.29-5.14,2.24-4.8,10.05,1.03,23.45,5.01,11.51,10.39,16.02,16.14,13.52,2.37-1.03,3.92-2.87,4.64-5.52.72-2.65.44-5.45-.84-8.39-.41-.94-1.15-2.27-2.21-4Z"/>
      <path class="st7" d="M340.76,44.82l13.69,44.6-12.44,3.82-13.69-44.6,12.44-3.82Z"/>
      <path class="st7" d="M370.16,37.26c12.85-2.31,20.71,4.44,23.56,20.28,2.85,15.83-2.27,24.93-15.36,27.29-13.09,2.36-21.09-4.56-24.01-20.75-2.79-15.47,2.48-24.41,15.81-26.81ZM370.47,40.99c-2.42.44-3.8,2.11-4.15,5.04-.35,2.92.18,8.31,1.59,16.16,1.41,7.85,2.79,13.08,4.15,15.7,1.35,2.62,3.23,3.71,5.65,3.27,2.42-.44,3.8-2.11,4.15-5.04.35-2.92-.18-8.31-1.59-16.16-1.41-7.83-2.79-13.05-4.14-15.68-1.35-2.63-3.24-3.72-5.65-3.29Z"/>
    </g>
    <path class="st4" d="M427.53,643.48c-3.01,0-5.46-2.42-5.5-5.43-.04-3.04,2.39-5.53,5.43-5.57,125.79-1.57,233.25-96.08,255.51-224.72.52-2.99,3.37-5,6.36-4.48,2.99.52,5,3.36,4.48,6.36-23.16,133.87-135.12,232.21-266.21,233.85h-.07Z"/>
  </g>
  <path class="st2" d="M692.65,357.37"/>
  <path class="st4" d="M1224.47,414.2h-536.08c-3.04,0-5.5-2.46-5.5-5.5s2.46-5.5,5.5-5.5h536.08c3.04,0,5.5,2.46,5.5,5.5s-2.46,5.5-5.5,5.5Z"/>
  <g>
    <path class="st6" d="M704.64,367.57v30.45h-7.71v-1.91c-1.3,1.61-3.03,2.42-5.2,2.42-4.79,0-7.18-3.82-7.18-11.47s2.54-11.8,7.61-11.8c2,0,3.59.92,4.78,2.75v-9.98c2.32,0,4.89-.15,7.71-.46ZM694.64,378.49c-1.3,0-1.94,1.24-1.94,3.71l-.15,4.7.08,4.28c0,2.74.73,4.11,2.2,4.11s2.13-1.35,2.13-4.04l.11-5.41-.17-3.69c-.23-2.45-.98-3.67-2.26-3.67Z"/>
    <path class="st6" d="M724.1,389.92l3.11.94c-.32,5.11-3.23,7.67-8.71,7.67-7.1,0-10.65-3.68-10.65-11.05,0-3.57.94-6.5,2.83-8.79s4.3-3.43,7.25-3.43c6.16,0,9.23,4.13,9.23,12.39h-11.24c0,5.8,1.42,8.7,4.25,8.7,2.65,0,3.97-1.64,3.97-4.92,0-.44-.01-.95-.04-1.52ZM715.9,385.17h4.61c0-5.16-.75-7.73-2.24-7.73-1.35,0-2.11,1.91-2.28,5.73l-.08,2Z"/>
    <path class="st6" d="M738.11,367.59v30.43h-7.71v-29.99c2.13,0,4.7-.15,7.71-.44Z"/>
    <path class="st6" d="M749.98,367.59v30.43h-7.71v-29.99c2.13,0,4.7-.15,7.71-.44Z"/>
    <path class="st6" d="M775.7,397.23c-1.89.76-3.73,1.14-5.52,1.14-2.65,0-4.28-.86-4.9-2.57-1.28,1.79-3.13,2.68-5.54,2.68-4.49,0-6.74-2.17-6.74-6.5,0-3.29,2.06-5.61,6.17-6.94,3.78-1.23,5.66-2.71,5.66-4.44,0-2.27-1.08-3.41-3.25-3.41-2.51,0-3.76,1.1-3.76,3.3,0,.69.2,1.6.59,2.72l-3.82-.77c-.1-.69-.15-1.33-.15-1.93,0-3.52,3.08-5.27,9.26-5.27s8.79,1.64,8.79,4.92v13.45c0,1.38.43,2.06,1.29,2.06.27,0,.66-.15,1.18-.46l.74,2.02ZM764.77,384.71c-.48.57-1.04,1.05-1.67,1.43-1.59.97-2.39,2.59-2.39,4.88,0,2.93.55,4.39,1.65,4.39,1.61,0,2.41-1.45,2.41-4.35v-6.35Z"/>
  </g>
  <g>
    <path class="st7" d="M833.32,340.31v59.98h-16.14v-41.75l-11.24,41.75h-9.34l-11.54-41.04v41.04h-5.62v-59.98h16.99l9.89,36.21,9.85-36.21h17.16Z"/>
    <path class="st7" d="M869.5,340.31l16.06,59.98h-16.82l-3.42-13.01h-17.37l-3.68,13.01h-6.55l17.07-59.98h14.71ZM849.59,381.27h14.16l-6.8-26.59-7.35,26.59Z"/>
    <path class="st7" d="M890.08,400.3v-59.98h24.81c6.45,0,11.61,1.41,15.47,4.24,3.86,2.83,5.79,6.61,5.79,11.36,0,7.27-4.14,12-12.42,14.19,4.25,1.64,7.01,3.44,8.26,5.41s2.11,5.77,2.56,11.43c.54,6.74,1.62,11.19,3.25,13.36h-18.17c-1.16-2.78-1.73-6.25-1.73-10.42l-.08-3.56-.08-4.48c0-6.91-2.68-10.37-8.03-10.37h-2.87v28.83h-16.74ZM906.81,366.5h3.38c6.34,0,9.51-3.44,9.51-10.33s-3.17-10.33-9.51-10.33h-3.38v20.65Z"/>
    <path class="st7" d="M985.25,340.31v6.02h-14.16v53.96h-17.75v-53.96h-14.24v-6.02h46.15Z"/>
    <path class="st7" d="M1026.96,340.31v6.02h-20.67v18.15h17.37v6.02h-17.37v23.77h24.17v6.02h-40.91v-59.98h37.4Z"/>
    <path class="st7" d="M1073.4,357.1l-7.78,1.49c.34-1.61.51-2.96.51-4.04,0-6.97-4.07-10.46-12.21-10.46-6.42,0-9.64,2.4-9.64,7.21,0,3.6,3.59,6.69,10.78,9.27,13.86,4.95,20.79,12.27,20.79,21.97,0,5.68-1.94,10.25-5.83,13.69-3.89,3.44-9.06,5.16-15.51,5.16-14.28,0-21.43-5.76-21.43-17.27,0-.94.07-2.09.21-3.47l8.07-1.85c-.62,2.55-.93,4.76-.93,6.64,0,7.44,4.1,11.16,12.3,11.16,6.56,0,9.85-2.68,9.85-8.04,0-3.98-3.93-7.49-11.79-10.5-11.35-4.34-17.03-11.26-17.03-20.79,0-5.39,1.89-9.73,5.68-13.03,3.79-3.29,8.77-4.94,14.94-4.94,12.68,0,19.02,5.93,19.02,17.8Z"/>
    <path class="st7" d="M1109.41,340.31l16.06,59.98h-16.82l-3.42-13.01h-17.37l-3.68,13.01h-6.55l17.07-59.98h14.71ZM1089.5,381.27h14.16l-6.8-26.59-7.35,26.59Z"/>
    <path class="st7" d="M1172.16,340.31v59.98h-12.81l-24.09-37.97v37.97h-5.62v-59.98h10.61l26.29,41v-41h5.62Z"/>
    <path class="st7" d="M1208,340.31l16.06,59.98h-16.82l-3.42-13.01h-17.37l-3.68,13.01h-6.55l17.07-59.98h14.71ZM1188.1,381.27h14.16l-6.8-26.59-7.35,26.59Z"/>
  </g>
  <path class="st1" d="M788,591"/>
  <path class="st0" d="M320.23,498.53"/>
  <g>
    <path class="st7" d="M233.25,531.88c-1.89,2.33,17.47,22,35.64,36.87,22.38,18.3,41.46,28.1,46.7,30.72,5.11,2.56,21.87,10.72,45.47,17.21,13.75,3.78,41.5,11.17,78.04,9.22,23.86-1.27,42.2-6.03,51-8.6,5.61-1.64,19.48-5.93,36.25-14.13,13.93-6.81,23.69-13.3,31.34-18.43,7.24-4.86,19.01-12.82,32.57-25.19,18.08-16.5,27.11-24.76,25.19-28.88-2.46-5.3-20.71-.92-115.48,21.11-15.63,3.63-29.49,6.85-48.59,10.85-32.54,6.81-48.8,10.22-62.68,11.68-20.18,2.11-50.86,5.33-84.18-4.3-43.8-12.66-69.07-40.82-71.28-38.1Z"/>
    <path class="st7" d="M233.25,531.88c-.68,1.71,24,14.48,52.94,24.55,18.76,6.53,36.17,12.5,59.84,13.59,12.77.59,21.96-.46,40.34-2.55,20.88-2.38,36.25-5.59,55.66-9.7,20.37-4.31,37.65-8.64,54.13-12.77,10.62-2.66,22.15-5.64,39.83-9.7,17.96-4.13,24.11-5.2,26.55-5.62,0,0,9.86-1.68,19.23-2.53,12.49-1.13,33.75,3.21,33.7,3.5-.07.43-44.78-16.98-99.39-9.14-10.52,1.51-26.13,4.77-57.37,11.28-25.59,5.34-24.26,5.44-36.02,7.63-14.02,2.61-37.63,6.91-67.46,8.63-17.06.98-32.94,1.78-53.19-.47-41.33-4.59-68.07-18.48-68.78-16.7Z"/>
    <path class="st7" d="M233.25,531.88c-.17.96,59.58,11.06,82.8,12.64,11,.75,21.44.65,21.44.65,3.46-.03,7.18-.13,11.19-.34,12.36-.64,21.44-1.97,31.54-3.45,3.83-.56,7.45-1.18,26.51-4.71,14.59-2.7,24.69-4.61,27.89-5.21,0,0,22.05-4.14,51.32-8.43,53.68-7.86,127.26,7.24,127.45,5.99.14-.93-40.27-11.78-94-13.14-8.67-.22-31.23,1.04-76.34,3.57-8.83.5-24.8,2.59-45.57,5.92,0,0,0,0,0,0-15.73,3-20.73,4.98-35.14,7.69,0,0,0,0,0,0-7.38,0-31.07,4.44-48.48,5.33-16.98.87-31.32-.75-59.99-4-15.11-1.71-20.56-2.82-20.61-2.53Z"/>
  </g>
  <path class="st7" d="M252.06,490.36"/>
  <g>
    <path class="st5" d="M312.91,235.43c-.48,1.16-1.75,1.66-3.43,2.32-1.68.66-3.21.76-3.58.77-1.07.05-1.16-.1-2.23,0-.8.08-1.86.18-2.98.77-.77.41-.67.57-1.94,1.39-.76.5-1.25.81-1.94,1.08-1.04.41-1.98.5-3.28.62-1.48.14-1.68.01-2.09.31-.52.38-.47.79-1.19,2.32-.52,1.1-.78,1.65-1.19,2.01-.86.76-1.69.17-2.98.62-1.1.38-1.74,1.18-2.38,2.01-1.76,2.28-9.84,12.95-14.3,14.87-.36.16-1.24.52-2.38.46-1.65-.08-2.82-.99-3.13-1.24-1.96-1.56-2.51-4.11-2.83-5.58-.5-2.33-.1-3.19-.89-3.87-1.07-.92-2.98-.38-4.02.15-1.01.51-1.78,1.31-3.13,3.56-2.48,4.15-1.93,4.92-3.13,6.04-1.22,1.15-2.32.84-9.68.62-7.87-.23-8.1.07-9.68-.62-2.49-1.09-3.61-2.58-5.96-2.32-.91.1-1,.35-3.87,1.08-.39.1-1.1.28-3.43.77-2.79.6-3.89.8-4.47.93-.4.09-5.88,1.39-8.94,5.73-1.15,1.64-1.56,3.88-2.38,8.36-1.1,6-1.62,9.07-.45,12.24.48,1.29,1.67,2.74,4.02,5.58,4.37,5.27,6.56,7.9,9.83,9.76,3.16,1.79,6.01,2.34,8.34,2.79,4.14.79,7.91.7,10.43.62,5.99-.18,7.41-1.05,9.24.31.71.53,1.62,2.42,3.43,6.2,2.13,4.47,2.11,4.76,2.98,6.04.47.69,2.09,3,4.92,5.11,2.75,2.05,3.45,1.53,6.7,3.87,2.43,1.75,3.65,2.63,4.32,4.18.96,2.24.1,3.66,1.49,5.89.93,1.48,2.15,2.19,2.38,2.32,1.49.83,2.87.77,5.51.62,2-.12,3.06-.18,4.47-.62,2.43-.76,3.43-1.87,7.3-3.41.8-.32,1.57-.59,2.38-.31,1.27.44,1.28,1.74,2.38,2.01,1.15.29,2.42-.81,3.28-1.55,1.27-1.1,1.17-1.68,1.94-1.86.59-.14.92.14,3.43,1.24,1.46.64,1.66.68,1.94.62,1.47-.32,2.03-2.99,2.09-3.25.52-2.57-.78-3.38-.45-4.96.8-3.79,9.63-5.09,12.96-5.58,3.71-.54,4.26-.13,7.45-.93,1.42-.36,4.34-1.1,7.75-2.94,3.92-2.12,4.06-3.29,6.41-3.56,2.74-.31,4.15,1.1,5.66,0,1.31-.96.83-2.48,2.23-3.72,1.42-1.26,3.37-.98,4.47-.93,7.31.35,10.9-7.57,15.05-5.73,2.21.98,4.64,4.74,4.62,7.9,0,.66-.12,1.32.3,1.7.99.92,3.18-1.46,6.85-1.55.83-.02,2.84-.07,4.47,1.24.94.75,1.21,1.52,2.38,3.87.81,1.62,1.7,3.2,2.53,4.8,2.61,5.02,3.91,7.54,5.21,8.05,1.83.73,2.71-.43,6.55.46.68.16,1.69.43,2.68,1.24.52.42,1.86,1.51,1.79,2.79-.07,1.13-1.17,1.26-2.53,3.1,0,0-1.22,1.64-1.79,3.87-.62,2.47.28,2.82-.15,4.8-.7,3.24-3.29,3.15-4.32,6.97-.21.77-.58,2.23-.15,3.87.29,1.12.67,1.22,1.04,2.48.51,1.71.07,2.39.3,4.03.15,1.08.69,2.12,1.79,4.18,1.45,2.73,1.78,2.69,2.98,5.11,1.04,2.12,1.52,3.65,1.64,4.03.66,2.15.3,2.07.74,2.94,1.07,2.11,2.77,1.81,4.47,4.34.55.81.98,1.48.89,2.32-.15,1.44-1.64,1.62-1.94,2.94-.41,1.83,2.12,2.75,2.09,4.96-.01.86-.41,1.23-3.13,4.49-2.94,3.52-3.39,4.18-3.58,5.27-.34,2.02.54,3.78.74,4.18,1.01,2,2.11,1.78,3.28,3.87.29.52,1.18,2.24,1.04,4.49-.06.95-.16,2.62-1.34,3.72-1.25,1.16-2.99,1.01-3.72.93-4.26-.44-5.18-4.46-7.75-4.18-2.55.28-5.01,4.63-4.32,7.75.45,2.01,2.27,3.8,3.28,4.8,1.33,1.31,1.92,1.4,2.38,2.48.86,1.97-.27,3.58.6,4.34.72.63,1.63-.39,3.43,0,1.45.31,2.67,1.36,3.28,2.48.63,1.16.53,2.25.3,4.49-.73,6.87-1.11,8.92,0,11,.36.68.82,1.53,1.64,1.7,1.58.34,2.58-2.26,5.06-2.32,1.07-.03,1.12.46,2.09.31,1.74-.26,2.12-1.9,3.58-2.48,1.37-.54,2.76.22,4.62,1.24,1.56.85,6.18,3.39,6.85,7.75.33,2.14-.56,3.01.3,4.34,1.1,1.7,3.1,1.07,4.17,2.79.8,1.28,0,2.13.3,4.34.51,3.74,3.22,4.23,3.28,6.66.09,3.52-5.54,4.5-5.51,7.59.02,2.41,3.44,2.24,9.53,7.9,2.73,2.53,4,4.38,7.15,5.58,1.91.73,2.31.37,3.72,1.24,2.83,1.73,2.8,4.09,5.51,5.58,1.27.7,1.4.25,3.87.93,2.52.69,5.54,1.52,7.6,3.87,2.83,3.24,2.74,8.15,2.68,9.29-.14,2.9-1.09,4.18-.15,5.89.83,1.52,2.61,2.39,4.02,2.63,1.88.33,2.24-.62,4.02-.15,1.5.39,2.6,1.41,3.58,2.32,1.31,1.22,1,1.41,1.94,2.17,1.6,1.3,2.74.94,5.21,2.01,1.04.45,1.11.63,3.13,1.86,3.09,1.88,5.17,3.14,7.45,3.87,1.2.38,3.78,1.21,6.7.62,5.44-1.09,10.31-6.72,9.38-10.07-.34-1.25-1.61-2.58-2.83-2.63-1.01-.05-1.41.8-3.28,1.24-.94.22-1.82.42-2.38,0-1.28-.96-.21-4.57,0-5.27,1.12-3.77,2.67-4.35,5.06-8.36,1.52-2.54,3.77-6.32,4.17-11.31.21-2.68-.28-3.52.45-5.73.94-2.85,3.26-5.95,5.36-5.73.99.1,1,.84,3.28,2.32,1.54,1.01,3.29,2.15,4.17,1.55.85-.57.02-2.15.89-4.03.49-1.05,1.11-1.34,3.13-2.79,4.91-3.54,5.17-4.72,7.45-5.11,1.76-.3,2.13.31,3.13-.31,1.66-1.03,1.14-3.05,3.13-4.8.51-.45,1.58-1.4,2.83-1.24,2.14.28,3.87,3.72,3.87,3.72,0,0-.01,1.3.3,1.7.49.63,2.6.1,5.06-1.39,7.67-4.64,8.38-12.28,13.56-12.86,1.38-.15,2.01.31,3.87-.15.79-.2,4.12-1.03,5.36-3.72,1.14-2.47-.51-4.33.74-5.73.96-1.07,2.16-.26,4.77-1.08,2.62-.83,4.27-2.57,4.92-3.25,1.99-2.1,2.7-4.34,3.47-6.85.85-2.77.55-3.23,1.45-9.26.96-6.4,1.45-6.88.89-8.52-.9-2.64-2.44-2.18-5.21-6.35-2.15-3.22-2.25-5.04-3.72-5.27-1.8-.28-3.97,2.08-4.62,2.79-1.28,1.39-1.38,2.2-1.94,2.17-1.3-.07-1.05-4.59-4.32-7.44-.64-.56-1.55-1.35-2.38-1.08-1.29.4-1.8,3.1-2.38,6.2-.39,2.06-.32,2.59-.89,3.25-1.06,1.22-3.02,1.42-4.47,1.08-1.06-.25-1.23-.63-4.62-2.94-2.38-1.62-2.85-1.81-3.43-1.7-1.28.23-1.38,1.59-3.13,2.17-.25.08-1.7.56-2.68-.15-1-.73-1.04-2.32-1.04-3.1-.06-6.65,1.14-10.34.37-13.64-1-4.27-5.37-8.22-9.75-8.2-3.63.02-7.56,2.77-7.89,5.58-.1.86.23.9.6,3.25.3,1.94.58,3.76.15,5.89-.18.86-.62,2.89-2.23,4.65-.99,1.07-1.58,1.71-2.38,1.7-1.99-.03-2.16-4.04-5.96-6.97-.76-.59-.56-.28-3.43-1.86-3.66-2.02-5.49-3.03-7.3-4.49-3.91-3.17-7-6.2-7-6.2-.39-.38-1.27-1.26-2.3-1.13-1.04.13-1.23,1.15-2.31,1.75-1.67.93-4.65.38-5.66-1.55-.73-1.39-.28-3.2.45-4.34,1.37-2.14,3.79-1.95,3.87-3.1.07-.89-1.36-1.23-3.58-3.25-1.84-1.69-2.77-2.53-3.13-3.87-.74-2.73.97-6.63,1.19-7.13.32-.72.78-1.57.45-2.32-.37-.86-1.35-.67-1.94-1.55-.76-1.14.37-2.25-.15-3.41-.85-1.89-4.7-.88-5.36-2.48-.39-.95.68-2.02,1.49-3.41,1.59-2.72,1.43-5.52,1.04-11-.13-1.84-.31-3.12-1.94-11.77-1.7-9.02-1.85-9.44-1.49-10.69.94-3.29,3.04-4.2,4.77-9.76.57-1.83.78-3.15.15-4.18-.72-1.18-2.24-1.47-4.47-1.86-2.98-.52-3.27.1-5.06-.46-2.86-.9-4.54-3.23-4.77-3.56-1.17-1.69-.77-2.36-2.38-5.27-.93-1.68-1.4-2.53-2.09-3.1-2.9-2.42-7.09-.39-7.75-1.86-.38-.84.92-1.68,1.79-3.87.92-2.34.57-4.25.3-6.97-.72-7.16.46-6.44-.3-11.46-.98-6.47-2.89-7.26-2.23-11.46.44-2.81,1.42-3.3,1.19-5.73-.32-3.44-2.48-4.58-1.94-7.13.21-.98.52-.79,2.53-3.87,1.48-2.26,2.22-3.39,2.68-4.8.28-.86.99-3.09.45-5.89-.15-.74-.56-2.46-1.79-4.18-1.05-1.48-1.72-1.58-2.68-2.63-1.68-1.84-1.31-3.35-2.53-7.9-.75-2.78-1.58-4.78-2.68-7.44-1.61-3.87-1.96-3.84-2.98-6.66-.96-2.66-1.73-4.82-1.79-7.75-.04-2.27.37-3.94,1.19-7.28.65-2.62.97-3.94,1.79-5.42.94-1.71,1.6-2.09,1.94-3.56.1-.41.6-2.6-.6-4.49-1.57-2.48-4.8-2.48-5.21-2.48-1.63.02-2.04.68-2.63.34-1.89-1.12.38-9.03.99-11.18,2.03-7.1,4-9.48,2.68-12.39-.77-1.7-1.74-1.57-2.53-3.72-1-2.72.18-3.99-.6-6.82-.54-2-1.21-1.65-3.13-4.96-2.46-4.24-2.58-6.91-4.17-7.13-.81-.11-.93.55-2.23,1.08-3.07,1.25-5.02-1.33-8.49-.77-.53.08-2,.99-4.92,2.79-5.38,3.32-5.24,3.45-6.55,4.03-2.13.93-2.24.48-8.34,1.7-3.38.68-5.45,1.1-8.19,2.01-1.58.53-.96.41-6.55,2.63-4.48,1.78-4.92,1.87-5.96,2.63-2.17,1.6-1.76,2.34-4.47,4.49-1.62,1.29-3.17,2.15-4.62,2.94-1.99,1.1-2.07.94-4.02,2.01-.99.54-2.9,1.6-5.06,3.25-1.06.81-.64.59-4.02,3.41-1.37,1.14-2.26,1.87-3.58,2.63-1.25.73-1.88,1.09-2.68,1.24-2.14.38-2.77-.96-4.62-.62-.73.13-.81.38-3.58,2.48-2.14,1.63-3.21,2.44-3.72,2.63-2.39.9-3.33-.31-5.51.77-1.36.68-1.04,1.18-2.53,2.01-1.45.81-2.83.91-5.51,1.08-2.58.16-2.87-.11-4.17.31-1.3.42-2.25,1.09-3.13,1.7-1.82,1.28-1.81,1.81-3.28,2.63-1.51.85-2.85,1.05-3.13,1.08-.4.05-2.07.25-4.77-.77-1.16-.44-2.48-1.28-5.06-2.94-.88-.57-2.71-1.76-5.21-2.94-1.19-.56-1.97-.86-2.83-.62-1.25.35-1.19,1.41-2.38,2.01-1.42.72-2.25-.4-5.51-.62-1.83-.12-3.21.12-4.02.31-.34.08-1.83.45-3.43,1.55-1.07.74-1.17,1.11-1.19,1.24-.19,1.02,1.22,1.97,2.23,2.94,1.11,1.06,1.88,2.77,3.43,6.2,1.18,2.62,2.52,5.58,3.13,9.6.56,3.7-.17,3.82.6,6.51.5,1.73,1.52,3.48,3.58,6.97,1.35,2.3,1.6,2.54,3.28,5.42.64,1.1,1.63,2.82,2.68,5.11,1.69,3.69,1.53,4.49,1.34,4.96Z"/>
    <path class="st5" d="M312.91,235.43c4.04.83,5.94,2.77,6.7,3.72.93,1.15,1.85,2.86,2.38,3.87.14.26.37.71,1.64,3.41,1.82,3.88,1.83,4.01,2.23,4.49,1.52,1.81,2.62,1.47,3.28,2.94.63,1.41-.19,2.12-.15,4.34.03,1.66.82,3.28,2.38,6.51,1.2,2.48,1.85,3.81,3.13,5.42,1.57,1.97,2.2,2,2.98,3.56.91,1.83.41,2.54,1.04,5.11.59,2.39,1.57,4.02,2.98,6.35,2.19,3.62,2.77,3.15,3.43,5.11,1.03,3.06-.41,4.15.74,7.13.8,2.06,1.53,1.72,2.83,4.34.94,1.89,1.23,3.44,1.79,6.38.3,1.57.63,3.73.8,6.33"/>
    <path class="st5" d="M329.33,254.38c5.21-2.28,8.34-1.79,10.26-.86,1.4.67,2.23,1.62,3.87,1.55,1.81-.08,2.39-1.29,5.36-2.94,2.08-1.16,1.95-.65,4.77-2.01,3.49-1.69,3.56-2.42,6.26-3.41,1.87-.69,3.53-.96,4.62-1.08,2.35-.26,2.53.16,4.62,0,.9-.07,4.08-.31,7.3-2.17,1.98-1.14,2.89-2.27,4.47-2.01,1.02.16,1.54.78,2.23.46.84-.38.55-1.48,1.49-2.79.19-.26.38-.47,2.83-2.01,1.98-1.25,1.96-1.17,3.28-2.01,2.16-1.37,2.18-1.54,2.83-1.7,1.68-.41,2.06.59,3.72.31,1.03-.17.92-.56,4.02-2.48,2.01-1.24,2.7-1.47,3.43-1.55,1.3-.13,1.45.36,2.38.15,1.56-.35,1.71-1.86,3.58-3.56,1.27-1.16,1.28-.53,4.02-2.32,2.62-1.71,2.76-2.39,4.47-2.94,1.65-.53,2.05-.08,2.98-.77,1.36-1.01.99-2.36,2.38-3.25.83-.53,1.09-.14,2.68-.62,1.61-.49,2.01-1.09,3.58-1.86,1.84-.91,2.37-.6,4.17-1.24,2.03-.72,3.29-1.82,5.81-4.03,1.93-1.69,3.16-3.1,4.77-4.96,2.86-3.3,4.29-4.99,4.47-6.51.32-2.69-1.54-3.68-1.19-6.2.33-2.35,2.29-4.02,3.92-5.06"/>
    <path class="st5" d="M402.74,339.21c1.21-.6,3.04-1.43,5.37-2.19,4.46-1.46,4.99-.77,7.25-2.07,1.06-.61,2.76-2.06,6.16-4.96.76-.65,1.45-1.25,2.58-1.65,1.87-.66,2.91-.03,4.42-.15,1.45-.12,1.93-.82,6.31-4.8,4.21-3.83,5.4-4.68,7.15-5.16,1.69-.47,1.65,0,3.38-.41,2.5-.61,3.62-1.85,8.74-6.2,2.58-2.19,3.81-3.36,5.16-3.92,2.6-1.07,5.14-.89,6.95-.54"/>
    <path class="st5" d="M407.8,399.15c2.42,1.48,4.5,2.29,5.96,2.76,1.36.44,2.09.54,2.68.15,1.13-.73.59-2.46,1.79-3.25,1.02-.68,2.42-.11,2.68,0,1.02.42,1.31,1.09,2.23,2.01,0,0,1.46,1.46,3.72,2.32,1.89.72,3.47.54,5.51.31,1.89-.21,4.37-.5,6.7-2.17.96-.69,1.18-1.1,2.09-1.39,1.61-.52,2.46.28,4.47.31.98.02,2.09-.35,4.32-1.08,2.53-.83,4.38-1.69,5.06-2.01,3.35-1.59,5.03-2.39,5.51-3.56.44-1.08-.1-1.35-.3-5.73-.14-3.02.08-3.79.6-4.18.15-.11.6-.4,2.83.15,2.77.7,3.1,1.4,5.36,1.86,1.55.31,1.71.04,3.13.46,1.23.37,1.62.72,2.83.93,1.17.2,2.09.36,2.68-.15.86-.75.08-2.08.74-3.72.4-.98.88-.99,3.13-2.79,2.53-2.02,2.71-2.65,5.21-4.49.91-.67,1.68-1.17,2.17-1.48"/>
  </g>
</svg>